<?xml version="1.0" standalone="no"?>
<!DOCTYPE svg PUBLIC "-//W3C//DTD SVG 20010904//EN"
 "http://www.w3.org/TR/2001/REC-SVG-20010904/DTD/svg10.dtd">
<svg version="1.0" xmlns="http://www.w3.org/2000/svg"
 width="700.000000pt" height="700.000000pt" viewBox="0 0 700.000000 700.000000"
 preserveAspectRatio="xMidYMid meet">
<metadata>
Created by potrace 1.14, written by Peter Selinger 2001-2017
</metadata>
<g transform="translate(0.000000,700.000000) scale(0.100000,-0.100000)"
fill="#000000" stroke="none">
<path d="M0 3500 l0 -3500 3500 0 3500 0 0 3500 0 3500 -3500 0 -3500 0 0
-3500z m2016 2928 c-7 -18 -109 -251 -225 -517 -117 -266 -209 -486 -206 -490
4 -3 104 -80 223 -171 119 -91 217 -171 217 -179 0 -7 -139 -206 -310 -441
l-310 -428 -263 525 -263 525 78 81 c43 45 300 317 572 605 272 287 496 522
498 522 2 0 -3 -15 -11 -32z m3553 -586 l560 -593 -260 -520 c-143 -286 -264
-519 -268 -517 -18 6 -631 862 -624 869 5 4 107 82 228 174 121 92 219 173
217 179 -2 6 -102 237 -223 513 -120 276 -219 505 -219 509 0 5 6 2 14 -6 8
-8 266 -282 575 -608z m-1366 -679 l699 -87 344 -474 c190 -260 347 -479 350
-486 3 -7 -113 -424 -256 -927 l-262 -914 -84 -680 c-47 -374 -86 -689 -89
-700 -4 -18 -87 -41 -705 -195 l-700 -175 -695 174 c-383 95 -697 176 -699
180 -2 3 -43 319 -91 701 l-87 695 -259 907 c-142 499 -259 915 -259 924 0 16
671 947 693 961 9 6 1289 174 1387 182 8 1 329 -38 713 -86z"/>
<path d="M3240 4680 l-215 -38 193 -1 c145 -1 194 -4 196 -13 2 -7 23 -677 45
-1487 23 -811 44 -1477 46 -1480 3 -2 5 36 5 85 0 49 18 710 40 1469 22 759
40 1390 40 1403 l0 22 198 1 197 1 -220 38 c-121 22 -240 39 -265 38 -25 0
-142 -17 -260 -38z"/>
<path d="M2282 3659 c3 -8 42 -125 87 -261 l83 -248 346 0 c193 0 342 4 337 9
-8 6 -798 480 -849 509 -5 3 -7 -1 -4 -9z"/>
<path d="M4285 3408 l-430 -258 349 2 349 3 84 250 c46 137 82 252 81 256 -2
3 -196 -111 -433 -253z"/>
<path d="M3902 1185 c-111 -67 -205 -125 -208 -128 -3 -3 70 14 163 37 l168
42 43 83 c24 45 42 84 40 85 -1 2 -94 -52 -206 -119z"/>
<path d="M2900 1295 c0 -6 70 -147 75 -153 6 -7 317 -83 321 -79 4 4 -380 237
-390 237 -3 0 -6 -2 -6 -5z"/>
</g>
</svg>
