<svg width="850" height="1100" viewBox="0 0 850 1100" fill="none"
  xmlns="http://www.w3.org/2000/svg">
  <rect width="850" height="1100" fill="#EEE9DA"/>
  <rect x="35" y="35" width="780" height="1030" fill="#6096B4"/>
  <path d="M70.4 596.06L66.94 598.48V595.76L70.76 593.1H72.9V604.82H76.2V607H66.92V604.82H70.4V596.06ZM101.445 601.82C101.445 604.58 99.9447 607.26 96.8647 607.26C95.5447 607.26 94.3447 606.72 93.7247 605.76L93.5647 607H91.4047V592.34H93.9047V597.6C94.3647 596.98 95.3447 596.34 96.8447 596.34C99.9247 596.34 101.445 598.74 101.445 601.82ZM96.3447 605.14C98.2047 605.14 98.9047 603.44 98.9047 601.78C98.9047 600.24 98.2647 598.44 96.3447 598.44C94.4247 598.44 93.7847 600.2 93.7847 601.78C93.7847 603.48 94.4847 605.14 96.3447 605.14ZM105.807 601.8C105.807 603.9 106.827 605.1 108.407 605.1C109.987 605.1 111.007 603.9 111.007 601.8C111.007 599.7 109.987 598.5 108.407 598.5C106.827 598.5 105.807 599.7 105.807 601.8ZM103.267 601.8C103.267 598.4 105.487 596.32 108.407 596.32C111.327 596.32 113.547 598.4 113.547 601.8C113.547 605.2 111.327 607.28 108.407 607.28C105.487 607.28 103.267 605.2 103.267 601.8ZM123.169 607L122.969 605.62C122.469 606.64 121.269 607.26 119.949 607.26C117.669 607.26 116.129 605.6 116.129 603.38V596.6H118.629V602.82C118.629 604.04 119.249 604.96 120.649 604.96C122.129 604.96 122.749 603.74 122.749 602.4V596.6H125.249V607H123.169ZM135.872 600.54C135.872 599.44 135.392 598.48 134.052 598.48C132.752 598.48 131.932 599.5 131.932 601.24V607H129.412V596.6H131.672L131.872 597.96C132.292 597.04 133.352 596.34 134.732 596.34C137.172 596.34 138.352 597.98 138.392 600.34V600.54H135.872ZM151.054 601.82C151.054 604.58 149.554 607.26 146.474 607.26C145.154 607.26 143.954 606.72 143.334 605.76L143.174 607H141.014V592.34H143.514V597.6C143.974 596.98 144.954 596.34 146.454 596.34C149.534 596.34 151.054 598.74 151.054 601.82ZM145.954 605.14C147.814 605.14 148.514 603.44 148.514 601.78C148.514 600.24 147.874 598.44 145.954 598.44C144.034 598.44 143.394 600.2 143.394 601.78C143.394 603.48 144.094 605.14 145.954 605.14ZM155.416 601.8C155.416 603.9 156.436 605.1 158.016 605.1C159.596 605.1 160.616 603.9 160.616 601.8C160.616 599.7 159.596 598.5 158.016 598.5C156.436 598.5 155.416 599.7 155.416 601.8ZM152.876 601.8C152.876 598.4 155.096 596.32 158.016 596.32C160.936 596.32 163.156 598.4 163.156 601.8C163.156 605.2 160.936 607.28 158.016 607.28C155.096 607.28 152.876 605.2 152.876 601.8ZM172.559 607V600.7C172.559 599.5 171.999 598.66 170.639 598.66C169.739 598.66 169.079 599.22 168.739 599.98C168.399 600.76 168.399 601.78 168.399 602.64V607H165.899V596.6H167.999L168.199 597.96C168.819 596.86 170.039 596.34 171.339 596.34C173.679 596.34 175.059 597.98 175.059 600.14V607H172.559ZM184.621 607C184.621 609.12 183.881 610.74 181.661 611.54L181.001 610.2C182.421 609.66 182.941 608.68 182.941 607H181.081V603.48H184.621V607ZM206.826 596.06L203.366 598.48V595.76L207.186 593.1H209.326V604.82H212.626V607H203.346V604.82H206.826V596.06ZM216.348 607.3H214.428L223.708 592.54H225.628L216.348 607.3ZM227.95 607V605.02L233.59 599.06C234.29 598.34 234.49 597.58 234.49 597.02C234.49 595.76 233.69 595.06 232.55 595.06C231.15 595.06 230.45 595.98 230.45 597.3C230.45 597.36 230.45 597.48 230.47 597.62H227.89C227.87 597.46 227.87 597.32 227.87 597.28C227.87 594.84 229.49 592.86 232.57 592.86C235.03 592.86 237.03 594.42 237.03 597.06C237.03 598.4 236.43 599.5 235.33 600.64L231.37 604.74H237.35V607H227.95ZM256.435 596.06L252.975 598.48V595.76L256.795 593.1H258.935V604.82H262.235V607H252.955V604.82H256.435V596.06ZM274.838 602.34C274.838 605.28 272.898 607.28 269.818 607.28C266.978 607.28 264.998 605.56 264.858 602.94H267.378C267.478 604.3 268.498 605.06 269.838 605.06C271.438 605.06 272.278 603.98 272.278 602.44C272.278 601.02 271.458 599.96 269.838 599.96C268.978 599.96 268.078 600.36 267.658 601.08H265.138L265.578 593.14H274.138V595.38H267.698L267.478 598.84C268.098 598.14 269.118 597.76 270.378 597.76C273.218 597.76 274.838 599.7 274.838 602.34ZM281.24 596.06L277.78 598.48V595.76L281.6 593.1H283.74V604.82H287.04V607H277.76V604.82H281.24V596.06ZM296.242 607C296.242 609.12 295.502 610.74 293.282 611.54L292.622 610.2C294.042 609.66 294.562 608.68 294.562 607H292.702V603.48H296.242V607ZM318.447 596.06L314.987 598.48V595.76L318.807 593.1H320.947V604.82H324.247V607H314.967V604.82H318.447V596.06ZM327.969 607.3H326.049L335.329 592.54H337.249L327.969 607.3ZM347.692 604.22V607H345.192V604.22H338.572V601.66L343.992 593.14H346.792L341.152 601.96H345.192V598.32H347.692V601.96H349.572V604.22H347.692ZM369.536 596.6H373.336V598.66H369.536V607H367.036V598.66H364.076V596.6H367.036V595.98C367.036 593.74 368.456 592.34 370.916 592.34C372.056 592.34 372.976 592.62 373.356 592.84V595.02C373.036 594.82 372.216 594.5 371.256 594.5C370.236 594.5 369.536 594.96 369.536 596.14V596.6ZM386.619 606.86C386.339 607 385.819 607.16 385.219 607.16C383.999 607.16 383.359 606.42 383.279 605.64C382.779 606.48 381.659 607.28 380.159 607.28C377.619 607.28 376.319 605.74 376.319 604.04C376.319 602.06 377.739 600.94 380.039 600.76L383.039 600.52V599.96C383.039 598.92 382.479 598.24 381.139 598.24C379.919 598.24 379.239 598.86 379.179 599.82H376.739C376.899 597.48 378.819 596.32 381.179 596.32C382.999 596.32 384.559 596.88 385.179 598.44C385.439 599.1 385.479 599.84 385.479 600.54V604.38C385.479 604.96 385.759 605.08 386.199 605.08C386.399 605.08 386.559 605.04 386.619 605.02V606.86ZM383.039 602.34L380.419 602.58C379.419 602.68 378.759 603.1 378.759 603.94C378.759 604.78 379.379 605.28 380.419 605.28C382.019 605.28 383.039 604.38 383.039 602.84V602.34ZM389.181 607V604.94H392.501V594.4H389.681V592.34H395.021V604.94H398.401V607H389.181ZM410.923 601.52C410.923 602.14 410.863 602.44 410.863 602.52H403.603C403.603 603.94 404.463 605.3 406.083 605.3C407.263 605.3 408.103 604.72 408.263 603.88H410.643C410.563 604.48 410.143 605.34 409.743 605.82C408.843 606.86 407.483 607.28 406.123 607.28C404.643 607.28 403.543 606.78 402.703 606C401.623 605 401.063 603.52 401.063 601.8C401.063 600.14 401.623 598.68 402.663 597.66C403.463 596.88 404.583 596.32 406.043 596.32C407.643 596.32 409.123 596.94 410.003 598.22C410.723 599.28 410.923 600.34 410.923 601.52ZM408.383 600.7C408.383 599.44 407.703 598.3 406.063 598.3C404.683 598.3 403.723 599.3 403.623 600.7H408.383ZM421.126 600.54C421.126 599.44 420.646 598.48 419.306 598.48C418.006 598.48 417.186 599.5 417.186 601.24V607H414.666V596.6H416.926L417.126 597.96C417.546 597.04 418.606 596.34 419.986 596.34C422.426 596.34 423.606 597.98 423.646 600.34V600.54H421.126ZM433.008 607V600.7C433.008 599.5 432.448 598.66 431.088 598.66C430.188 598.66 429.528 599.22 429.188 599.98C428.848 600.76 428.848 601.78 428.848 602.64V607H426.348V596.6H428.448L428.648 597.96C429.268 596.86 430.488 596.34 431.788 596.34C434.128 596.34 435.508 597.98 435.508 600.14V607H433.008ZM445.63 607L445.43 605.62C444.93 606.64 443.73 607.26 442.41 607.26C440.13 607.26 438.59 605.6 438.59 603.38V596.6H441.09V602.82C441.09 604.04 441.71 604.96 443.11 604.96C444.59 604.96 445.21 603.74 445.21 602.4V596.6H447.71V607H445.63ZM454.613 599.46C454.613 599 454.333 598.52 453.713 598.52C452.933 598.52 452.673 599.28 452.673 599.94V607H450.333V596.6H452.093L452.333 597.84C452.513 597.12 453.213 596.38 454.333 596.38C455.733 596.38 456.233 597.24 456.353 598C456.593 597.24 457.273 596.38 458.733 596.38C460.293 596.38 461.213 597.52 461.213 599.38V607H458.853V599.46C458.853 599 458.573 598.52 457.953 598.52C457.173 598.52 456.913 599.28 456.913 599.94V607H454.613V599.46ZM482.557 605.92C481.617 606.76 480.417 607.28 478.977 607.28C476.657 607.28 474.537 605.82 474.537 603.24C474.537 601.5 475.437 600.32 476.857 599.38L476.757 599.26C476.077 598.48 475.257 597.42 475.257 595.98C475.257 594.1 476.797 592.54 479.097 592.54C481.177 592.54 482.697 593.96 482.697 595.82C482.697 597.56 481.537 598.78 480.057 599.74L482.417 602.42C482.657 601.6 482.777 600.66 482.777 599.68V599.02H486.137V601H484.717C484.677 602.08 484.397 603.16 483.917 604.12L486.477 607H483.497L482.557 605.92ZM479.177 605.2C480.037 605.2 480.737 604.92 481.257 604.44L478.197 600.92C477.197 601.62 476.837 602.34 476.837 603.1C476.837 604.42 477.837 605.2 479.177 605.2ZM477.497 596C477.497 596.82 478.077 597.5 478.657 598.16L478.697 598.22C479.697 597.58 480.537 596.9 480.537 595.96C480.537 595.18 479.957 594.52 479.077 594.52C478.197 594.52 477.497 595.12 477.497 596ZM510.642 606.86C510.362 607 509.842 607.16 509.242 607.16C508.022 607.16 507.382 606.42 507.302 605.64C506.802 606.48 505.682 607.28 504.182 607.28C501.642 607.28 500.342 605.74 500.342 604.04C500.342 602.06 501.762 600.94 504.062 600.76L507.062 600.52V599.96C507.062 598.92 506.502 598.24 505.162 598.24C503.942 598.24 503.262 598.86 503.202 599.82H500.762C500.922 597.48 502.842 596.32 505.202 596.32C507.022 596.32 508.582 596.88 509.202 598.44C509.462 599.1 509.502 599.84 509.502 600.54V604.38C509.502 604.96 509.782 605.08 510.222 605.08C510.422 605.08 510.582 605.04 510.642 605.02V606.86ZM507.062 602.34L504.442 602.58C503.442 602.68 502.782 603.1 502.782 603.94C502.782 604.78 503.402 605.28 504.442 605.28C506.042 605.28 507.062 604.38 507.062 602.84V602.34ZM516.624 599.46C516.624 599 516.344 598.52 515.724 598.52C514.944 598.52 514.684 599.28 514.684 599.94V607H512.344V596.6H514.104L514.344 597.84C514.524 597.12 515.224 596.38 516.344 596.38C517.744 596.38 518.244 597.24 518.364 598C518.604 597.24 519.284 596.38 520.744 596.38C522.304 596.38 523.224 597.52 523.224 599.38V607H520.864V599.46C520.864 599 520.584 598.52 519.964 598.52C519.184 598.52 518.924 599.28 518.924 599.94V607H516.624V599.46ZM535.447 606.86C535.167 607 534.647 607.16 534.047 607.16C532.827 607.16 532.187 606.42 532.107 605.64C531.607 606.48 530.487 607.28 528.987 607.28C526.447 607.28 525.147 605.74 525.147 604.04C525.147 602.06 526.567 600.94 528.867 600.76L531.867 600.52V599.96C531.867 598.92 531.307 598.24 529.967 598.24C528.747 598.24 528.067 598.86 528.007 599.82H525.567C525.727 597.48 527.647 596.32 530.007 596.32C531.827 596.32 533.387 596.88 534.007 598.44C534.267 599.1 534.307 599.84 534.307 600.54V604.38C534.307 604.96 534.587 605.08 535.027 605.08C535.227 605.08 535.387 605.04 535.447 605.02V606.86ZM531.867 602.34L529.247 602.58C528.247 602.68 527.587 603.1 527.587 603.94C527.587 604.78 528.207 605.28 529.247 605.28C530.847 605.28 531.867 604.38 531.867 602.84V602.34ZM545.149 600.54C545.149 599.44 544.669 598.48 543.329 598.48C542.029 598.48 541.209 599.5 541.209 601.24V607H538.689V596.6H540.949L541.149 597.96C541.569 597.04 542.629 596.34 544.009 596.34C546.449 596.34 547.629 597.98 547.669 600.34V600.54H545.149ZM559.751 601.52C559.751 602.14 559.691 602.44 559.691 602.52H552.431C552.431 603.94 553.291 605.3 554.911 605.3C556.091 605.3 556.931 604.72 557.091 603.88H559.471C559.391 604.48 558.971 605.34 558.571 605.82C557.671 606.86 556.311 607.28 554.951 607.28C553.471 607.28 552.371 606.78 551.531 606C550.451 605 549.891 603.52 549.891 601.8C549.891 600.14 550.451 598.68 551.491 597.66C552.291 596.88 553.411 596.32 554.871 596.32C556.471 596.32 557.951 596.94 558.831 598.22C559.551 599.28 559.751 600.34 559.751 601.52ZM557.211 600.7C557.211 599.44 556.531 598.3 554.891 598.3C553.511 598.3 552.551 599.3 552.451 600.7H557.211ZM572.214 606.58C571.754 606.86 570.714 607.14 569.374 607.14C566.714 607.14 565.594 605.66 565.594 603.5V598.66H562.754V596.6H565.594V593.86L568.094 593.14V596.6H572.154V598.66H568.094V603.2C568.094 604.42 568.794 604.88 569.794 604.88C570.894 604.88 571.834 604.58 572.214 604.44V606.58ZM584.616 606.58C584.156 606.86 583.116 607.14 581.776 607.14C579.116 607.14 577.996 605.66 577.996 603.5V598.66H575.156V596.6H577.996V593.86L580.496 593.14V596.6H584.556V598.66H580.496V603.2C580.496 604.42 581.196 604.88 582.196 604.88C583.296 604.88 584.236 604.58 584.616 604.44V606.58ZM589.498 601.8C589.498 603.9 590.518 605.1 592.098 605.1C593.678 605.1 594.698 603.9 594.698 601.8C594.698 599.7 593.678 598.5 592.098 598.5C590.518 598.5 589.498 599.7 589.498 601.8ZM586.958 601.8C586.958 598.4 589.178 596.32 592.098 596.32C595.018 596.32 597.238 598.4 597.238 601.8C597.238 605.2 595.018 607.28 592.098 607.28C589.178 607.28 586.958 605.2 586.958 601.8ZM618.983 605.92C618.043 606.76 616.843 607.28 615.403 607.28C613.083 607.28 610.963 605.82 610.963 603.24C610.963 601.5 611.863 600.32 613.283 599.38L613.183 599.26C612.503 598.48 611.683 597.42 611.683 595.98C611.683 594.1 613.223 592.54 615.523 592.54C617.603 592.54 619.123 593.96 619.123 595.82C619.123 597.56 617.963 598.78 616.483 599.74L618.843 602.42C619.083 601.6 619.203 600.66 619.203 599.68V599.02H622.563V601H621.143C621.103 602.08 620.823 603.16 620.343 604.12L622.903 607H619.923L618.983 605.92ZM615.603 605.2C616.463 605.2 617.163 604.92 617.683 604.44L614.623 600.92C613.623 601.62 613.263 602.34 613.263 603.1C613.263 604.42 614.263 605.2 615.603 605.2ZM613.923 596C613.923 596.82 614.503 597.5 615.083 598.16L615.123 598.22C616.123 597.58 616.963 596.9 616.963 595.96C616.963 595.18 616.383 594.52 615.503 594.52C614.623 594.52 613.923 595.12 613.923 596ZM645.348 604.22V607H642.848V604.22H636.228V601.66L641.648 593.14H644.448L638.808 601.96H642.848V598.32H645.348V601.96H647.228V604.22H645.348ZM658.87 603.04C658.87 605.82 656.67 607.28 653.93 607.28C651.09 607.28 649.03 605.48 648.99 602.88H651.51C651.61 604.24 652.57 605.08 653.95 605.08C655.41 605.08 656.33 604.28 656.33 603C656.33 601.56 655.23 600.9 653.77 600.9H652.61V598.72H653.77C655.31 598.72 656.03 598 656.03 596.9C656.03 595.84 655.21 595.06 653.95 595.06C652.51 595.06 651.65 595.96 651.63 597.1H649.09C649.13 594.6 651.27 592.86 653.95 592.86C656.59 592.86 658.57 594.44 658.57 596.84C658.57 598.1 657.79 599.34 656.47 599.78C657.99 600.18 658.87 601.6 658.87 603.04ZM668.313 607C668.313 609.12 667.573 610.74 665.353 611.54L664.693 610.2C666.113 609.66 666.633 608.68 666.633 607H664.773V603.48H668.313V607ZM690.257 599.46C690.257 599 689.977 598.52 689.357 598.52C688.577 598.52 688.317 599.28 688.317 599.94V607H685.977V596.6H687.737L687.977 597.84C688.157 597.12 688.857 596.38 689.977 596.38C691.377 596.38 691.877 597.24 691.997 598C692.237 597.24 692.917 596.38 694.377 596.38C695.937 596.38 696.857 597.52 696.857 599.38V607H694.497V599.46C694.497 599 694.217 598.52 693.597 598.52C692.817 598.52 692.557 599.28 692.557 599.94V607H690.257V599.46ZM708.42 603.8C708.42 606.24 706.2 607.28 703.74 607.28C701.24 607.28 699 606.06 699 603.66H701.4C701.44 604.78 702.52 605.36 703.82 605.36C705.22 605.36 706.1 604.84 706.1 604.04C706.1 603.46 705.78 603.06 704.88 602.92L702.52 602.56C700.26 602.24 699.44 600.92 699.44 599.68C699.44 597.74 701.2 596.32 703.82 596.32C706.34 596.32 708.14 597.7 708.14 599.68H705.76C705.72 598.82 705.04 598.2 703.82 598.2C702.64 598.2 701.8 598.68 701.8 599.46C701.8 600.18 702.4 600.42 703.06 600.52L705.44 600.86C707.22 601.1 708.42 602.16 708.42 603.8ZM711.842 600.18C711.842 597.76 713.842 596.32 716.182 596.32C717.042 596.32 717.942 596.56 718.622 596.96C719.022 596.04 719.862 595.6 720.742 595.6C721.142 595.6 721.322 595.64 721.502 595.68V597.66C721.442 597.64 721.222 597.62 721.102 597.62C720.582 597.62 720.122 597.82 719.962 598.28C720.302 598.84 720.502 599.46 720.502 600.16C720.502 602.54 718.422 603.94 716.182 603.94C715.562 603.94 714.962 603.84 714.422 603.64C714.122 603.8 713.862 604.02 713.862 604.36C713.862 604.98 714.402 605.08 714.922 605.08H716.842C717.882 605.08 719.222 605.1 720.202 605.78C721.102 606.4 721.422 607.24 721.422 608.24C721.422 610.86 718.662 611.6 716.342 611.6C713.942 611.6 711.222 611.12 711.222 608.68C711.222 607.74 711.882 607 712.762 606.6C712.082 606.26 711.722 605.56 711.722 604.88C711.722 604.04 712.262 603.3 713.122 602.9C712.342 602.26 711.842 601.34 711.842 600.18ZM719.082 608.3C719.082 607.1 717.722 607.06 716.782 607.06H714.382C713.842 607.22 713.442 607.64 713.442 608.3C713.442 609.62 715.262 609.7 716.242 609.7C717.242 609.7 719.082 609.68 719.082 608.3ZM718.102 600.14C718.102 598.94 717.302 598.18 716.182 598.18C715.062 598.18 714.262 598.94 714.262 600.14C714.262 601.34 715.062 602.08 716.182 602.08C717.302 602.08 718.102 601.34 718.102 600.14Z" fill="white"/>
  <path d="M83.784 564.256C83.784 568.288 81.064 571.232 75.848 571.232H71.624V580H67.528V557.312H75.848C81.064 557.312 83.784 560.224 83.784 564.256ZM79.624 564.288C79.624 562.208 78.376 560.928 75.624 560.928H71.624V567.616H75.624C78.376 567.616 79.624 566.368 79.624 564.288ZM102.54 571.232C102.54 572.224 102.444 572.704 102.444 572.832H90.8278C90.8278 575.104 92.2038 577.28 94.7958 577.28C96.6838 577.28 98.0278 576.352 98.2838 575.008H102.092C101.964 575.968 101.292 577.344 100.652 578.112C99.2118 579.776 97.0358 580.448 94.8598 580.448C92.4918 580.448 90.7318 579.648 89.3878 578.4C87.6598 576.8 86.7638 574.432 86.7638 571.68C86.7638 569.024 87.6598 566.688 89.3238 565.056C90.6038 563.808 92.3958 562.912 94.7318 562.912C97.2918 562.912 99.6598 563.904 101.068 565.952C102.22 567.648 102.54 569.344 102.54 571.232ZM98.4758 569.92C98.4758 567.904 97.3878 566.08 94.7638 566.08C92.5558 566.08 91.0198 567.68 90.8598 569.92H98.4758ZM118.864 569.664C118.864 567.904 118.096 566.368 115.952 566.368C113.872 566.368 112.56 568 112.56 570.784V580H108.528V563.36H112.144L112.464 565.536C113.135 564.064 114.832 562.944 117.04 562.944C120.944 562.944 122.832 565.568 122.896 569.344V569.664H118.864ZM135.539 563.36H141.619V566.656H135.539V580H131.539V566.656H126.803V563.36H131.539V562.368C131.539 558.784 133.811 556.544 137.747 556.544C139.571 556.544 141.043 556.992 141.651 557.344V560.832C141.139 560.512 139.827 560 138.291 560C136.659 560 135.539 560.736 135.539 562.624V563.36ZM162.071 571.232C162.071 572.224 161.975 572.704 161.975 572.832H150.359C150.359 575.104 151.735 577.28 154.327 577.28C156.215 577.28 157.559 576.352 157.815 575.008H161.623C161.495 575.968 160.823 577.344 160.183 578.112C158.743 579.776 156.567 580.448 154.391 580.448C152.023 580.448 150.263 579.648 148.919 578.4C147.191 576.8 146.295 574.432 146.295 571.68C146.295 569.024 147.191 566.688 148.855 565.056C150.135 563.808 151.927 562.912 154.263 562.912C156.823 562.912 159.191 563.904 160.599 565.952C161.751 567.648 162.071 569.344 162.071 571.232ZM158.007 569.92C158.007 567.904 156.919 566.08 154.295 566.08C152.087 566.08 150.551 567.68 150.391 569.92H158.007ZM181.819 574.176C181.755 575.488 181.275 576.832 180.475 577.824C179.259 579.264 177.307 580.448 174.459 580.448C171.643 580.448 169.595 579.232 168.379 577.824C167.067 576.256 166.331 574.112 166.331 571.68C166.331 569.248 167.099 567.104 168.411 565.536C169.627 564.128 171.643 562.912 174.459 562.912C177.307 562.912 179.259 564.096 180.475 565.536C181.275 566.528 181.755 567.872 181.819 569.184H177.883C177.755 567.488 176.475 566.368 174.459 566.368C173.115 566.368 172.251 566.944 171.707 567.552C170.683 568.64 170.363 570.112 170.363 571.68C170.363 573.248 170.683 574.784 171.707 575.84C172.283 576.448 173.115 576.992 174.459 576.992C176.283 576.992 177.627 576.032 177.883 574.176H181.819ZM201.855 579.328C201.119 579.776 199.455 580.224 197.311 580.224C193.055 580.224 191.263 577.856 191.263 574.4V566.656H186.719V563.36H191.263V558.976L195.263 557.824V563.36H201.759V566.656H195.263V573.92C195.263 575.872 196.383 576.608 197.983 576.608C199.743 576.608 201.247 576.128 201.855 575.904V579.328ZM233.542 580.448C231.462 580.448 229.414 579.84 227.814 578.272C225.286 575.808 224.966 572.288 224.966 568.672C224.966 565.056 225.446 561.728 227.942 559.232C229.606 557.568 231.846 556.896 234.15 556.896C239.91 556.896 242.406 560.704 242.406 564.512H238.246C238.182 562.656 237.19 560.608 234.15 560.608C229.606 560.608 229.158 565.536 229.158 568.672C229.158 571.776 229.51 576.832 233.862 576.832C236.774 576.832 238.406 574.88 238.406 571.712H233.062V568.288H242.342V580H239.654L239.014 577.408C238.502 578.656 236.71 580.448 233.542 580.448ZM261.29 571.232C261.29 572.224 261.194 572.704 261.194 572.832H249.578C249.578 575.104 250.954 577.28 253.546 577.28C255.434 577.28 256.778 576.352 257.034 575.008H260.842C260.714 575.968 260.042 577.344 259.402 578.112C257.962 579.776 255.786 580.448 253.61 580.448C251.242 580.448 249.482 579.648 248.138 578.4C246.41 576.8 245.514 574.432 245.514 571.68C245.514 569.024 246.41 566.688 248.074 565.056C249.354 563.808 251.146 562.912 253.482 562.912C256.042 562.912 258.41 563.904 259.818 565.952C260.97 567.648 261.29 569.344 261.29 571.232ZM257.226 569.92C257.226 567.904 256.138 566.08 253.514 566.08C251.306 566.08 249.77 567.68 249.61 569.92H257.226ZM276.782 580V569.92C276.782 568 275.886 566.656 273.71 566.656C272.27 566.656 271.214 567.552 270.67 568.768C270.126 570.016 270.126 571.648 270.126 573.024V580H266.126V563.36H269.486L269.806 565.536C270.798 563.776 272.75 562.944 274.83 562.944C278.574 562.944 280.782 565.568 280.782 569.024V580H276.782ZM301.073 579.328C300.337 579.776 298.673 580.224 296.529 580.224C292.273 580.224 290.481 577.856 290.481 574.4V566.656H285.937V563.36H290.481V558.976L294.481 557.824V563.36H300.977V566.656H294.481V573.92C294.481 575.872 295.601 576.608 297.201 576.608C298.961 576.608 300.465 576.128 301.073 575.904V579.328ZM305.877 580V576.704H311.189V559.84H306.677V556.544H315.221V576.704H320.629V580H305.877ZM340.665 571.232C340.665 572.224 340.569 572.704 340.569 572.832H328.953C328.953 575.104 330.329 577.28 332.921 577.28C334.809 577.28 336.153 576.352 336.409 575.008H340.217C340.089 575.968 339.417 577.344 338.777 578.112C337.337 579.776 335.161 580.448 332.985 580.448C330.617 580.448 328.857 579.648 327.513 578.4C325.785 576.8 324.889 574.432 324.889 571.68C324.889 569.024 325.785 566.688 327.449 565.056C328.729 563.808 330.521 562.912 332.857 562.912C335.417 562.912 337.785 563.904 339.193 565.952C340.345 567.648 340.665 569.344 340.665 571.232ZM336.601 569.92C336.601 567.904 335.513 566.08 332.889 566.08C330.681 566.08 329.145 567.68 328.985 569.92H336.601ZM351.036 567.936C351.036 567.2 350.589 566.432 349.597 566.432C348.349 566.432 347.933 567.648 347.933 568.704V580H344.189V563.36H347.005L347.389 565.344C347.677 564.192 348.797 563.008 350.589 563.008C352.829 563.008 353.629 564.384 353.821 565.6C354.205 564.384 355.293 563.008 357.629 563.008C360.125 563.008 361.597 564.832 361.597 567.808V580H357.821V567.936C357.821 567.2 357.373 566.432 356.381 566.432C355.133 566.432 354.717 567.648 354.717 568.704V580H351.036V567.936ZM381.152 579.776C380.704 580 379.872 580.256 378.912 580.256C376.96 580.256 375.936 579.072 375.808 577.824C375.008 579.168 373.216 580.448 370.816 580.448C366.752 580.448 364.672 577.984 364.672 575.264C364.672 572.096 366.944 570.304 370.624 570.016L375.424 569.632V568.736C375.424 567.072 374.528 565.984 372.384 565.984C370.432 565.984 369.344 566.976 369.248 568.512H365.344C365.6 564.768 368.672 562.912 372.448 562.912C375.36 562.912 377.856 563.808 378.848 566.304C379.264 567.36 379.328 568.544 379.328 569.664V575.808C379.328 576.736 379.776 576.928 380.48 576.928C380.8 576.928 381.056 576.864 381.152 576.832V579.776ZM375.424 572.544L371.232 572.928C369.632 573.088 368.576 573.76 368.576 575.104C368.576 576.448 369.568 577.248 371.232 577.248C373.792 577.248 375.424 575.808 375.424 573.344V572.544ZM395.844 580V569.92C395.844 568 394.948 566.656 392.772 566.656C391.332 566.656 390.276 567.552 389.732 568.768C389.188 570.016 389.188 571.648 389.188 573.024V580H385.188V563.36H388.548L388.868 565.536C389.86 563.776 391.812 562.944 393.892 562.944C397.636 562.944 399.844 565.568 399.844 569.024V580H395.844Z" fill="white"/>
  <path d="M66.72 748V746.02L72.36 740.06C73.06 739.34 73.26 738.58 73.26 738.02C73.26 736.76 72.46 736.06 71.32 736.06C69.92 736.06 69.22 736.98 69.22 738.3C69.22 738.36 69.22 738.48 69.24 738.62H66.66C66.64 738.46 66.64 738.32 66.64 738.28C66.64 735.84 68.26 733.86 71.34 733.86C73.8 733.86 75.8 735.42 75.8 738.06C75.8 739.4 75.2 740.5 74.1 741.64L70.14 745.74H76.12V748H66.72ZM98.6647 741.54C98.6647 740.44 98.1847 739.48 96.8447 739.48C95.5447 739.48 94.7247 740.5 94.7247 742.24V748H92.2047V737.6H94.4647L94.6647 738.96C95.0847 738.04 96.1447 737.34 97.5247 737.34C99.9647 737.34 101.145 738.98 101.185 741.34V741.54H98.6647ZM110.767 748L110.567 746.62C110.067 747.64 108.867 748.26 107.547 748.26C105.267 748.26 103.727 746.6 103.727 744.38V737.6H106.227V743.82C106.227 745.04 106.847 745.96 108.247 745.96C109.727 745.96 110.347 744.74 110.347 743.4V737.6H112.847V748H110.767ZM119.749 740.46C119.749 740 119.469 739.52 118.849 739.52C118.069 739.52 117.809 740.28 117.809 740.94V748H115.469V737.6H117.229L117.469 738.84C117.649 738.12 118.349 737.38 119.469 737.38C120.869 737.38 121.369 738.24 121.489 739C121.729 738.24 122.409 737.38 123.869 737.38C125.429 737.38 126.349 738.52 126.349 740.38V748H123.989V740.46C123.989 740 123.709 739.52 123.089 739.52C122.309 739.52 122.049 740.28 122.049 740.94V748H119.749V740.46ZM135.012 748C135.012 750.12 134.272 751.74 132.052 752.54L131.392 751.2C132.812 750.66 133.332 749.68 133.332 748H131.472V744.48H135.012V748ZM157.216 737.06L153.756 739.48V736.76L157.576 734.1H159.716V745.82H163.016V748H153.736V745.82H157.216V737.06ZM166.739 748.3H164.819L174.099 733.54H176.019L166.739 748.3ZM178.341 748V746.02L183.981 740.06C184.681 739.34 184.881 738.58 184.881 738.02C184.881 736.76 184.081 736.06 182.941 736.06C181.541 736.06 180.841 736.98 180.841 738.3C180.841 738.36 180.841 738.48 180.861 738.62H178.281C178.261 738.46 178.261 738.32 178.261 738.28C178.261 735.84 179.881 733.86 182.961 733.86C185.421 733.86 187.421 735.42 187.421 738.06C187.421 739.4 186.821 740.5 185.721 741.64L181.761 745.74H187.741V748H178.341ZM212.546 747.58C212.086 747.86 211.046 748.14 209.706 748.14C207.046 748.14 205.926 746.66 205.926 744.5V739.66H203.086V737.6H205.926V734.86L208.426 734.14V737.6H212.486V739.66H208.426V744.2C208.426 745.42 209.126 745.88 210.126 745.88C211.226 745.88 212.166 745.58 212.546 745.44V747.58ZM216.288 737.6H221.688V745.94H225.108V748H215.728V745.94H219.148V739.66H216.288V737.6ZM218.968 735.98V733.34H221.848V735.98H218.968ZM237.79 747.86C237.51 748 236.99 748.16 236.39 748.16C235.17 748.16 234.53 747.42 234.45 746.64C233.95 747.48 232.83 748.28 231.33 748.28C228.79 748.28 227.49 746.74 227.49 745.04C227.49 743.06 228.91 741.94 231.21 741.76L234.21 741.52V740.96C234.21 739.92 233.65 739.24 232.31 739.24C231.09 739.24 230.41 739.86 230.35 740.82H227.91C228.07 738.48 229.99 737.32 232.35 737.32C234.17 737.32 235.73 737.88 236.35 739.44C236.61 740.1 236.65 740.84 236.65 741.54V745.38C236.65 745.96 236.93 746.08 237.37 746.08C237.57 746.08 237.73 746.04 237.79 746.02V747.86ZM234.21 743.34L231.59 743.58C230.59 743.68 229.93 744.1 229.93 744.94C229.93 745.78 230.55 746.28 231.59 746.28C233.19 746.28 234.21 745.38 234.21 743.84V743.34ZM246.633 748C246.633 750.12 245.893 751.74 243.673 752.54L243.013 751.2C244.433 750.66 244.953 749.68 244.953 748H243.093V744.48H246.633V748ZM268.838 737.06L265.378 739.48V736.76L269.198 734.1H271.338V745.82H274.638V748H265.358V745.82H268.838V737.06ZM278.36 748.3H276.44L285.72 733.54H287.64L278.36 748.3ZM298.082 745.22V748H295.582V745.22H288.962V742.66L294.382 734.14H297.182L291.542 742.96H295.582V739.32H298.082V742.96H299.962V745.22H298.082ZM319.927 737.6H323.727V739.66H319.927V748H317.427V739.66H314.467V737.6H317.427V736.98C317.427 734.74 318.847 733.34 321.307 733.34C322.447 733.34 323.367 733.62 323.747 733.84V736.02C323.427 735.82 322.607 735.5 321.647 735.5C320.627 735.5 319.927 735.96 319.927 737.14V737.6ZM337.009 747.86C336.729 748 336.209 748.16 335.609 748.16C334.389 748.16 333.749 747.42 333.669 746.64C333.169 747.48 332.049 748.28 330.549 748.28C328.009 748.28 326.709 746.74 326.709 745.04C326.709 743.06 328.129 741.94 330.429 741.76L333.429 741.52V740.96C333.429 739.92 332.869 739.24 331.529 739.24C330.309 739.24 329.629 739.86 329.569 740.82H327.129C327.289 738.48 329.209 737.32 331.569 737.32C333.389 737.32 334.949 737.88 335.569 739.44C335.829 740.1 335.869 740.84 335.869 741.54V745.38C335.869 745.96 336.149 746.08 336.589 746.08C336.789 746.08 336.949 746.04 337.009 746.02V747.86ZM333.429 743.34L330.809 743.58C329.809 743.68 329.149 744.1 329.149 744.94C329.149 745.78 329.769 746.28 330.809 746.28C332.409 746.28 333.429 745.38 333.429 743.84V743.34ZM339.572 748V745.94H342.892V735.4H340.072V733.34H345.412V745.94H348.792V748H339.572ZM361.314 742.52C361.314 743.14 361.254 743.44 361.254 743.52H353.994C353.994 744.94 354.854 746.3 356.474 746.3C357.654 746.3 358.494 745.72 358.654 744.88H361.034C360.954 745.48 360.534 746.34 360.134 746.82C359.234 747.86 357.874 748.28 356.514 748.28C355.034 748.28 353.934 747.78 353.094 747C352.014 746 351.454 744.52 351.454 742.8C351.454 741.14 352.014 739.68 353.054 738.66C353.854 737.88 354.974 737.32 356.434 737.32C358.034 737.32 359.514 737.94 360.394 739.22C361.114 740.28 361.314 741.34 361.314 742.52ZM358.774 741.7C358.774 740.44 358.094 739.3 356.454 739.3C355.074 739.3 354.114 740.3 354.014 741.7H358.774ZM371.516 741.54C371.516 740.44 371.036 739.48 369.696 739.48C368.396 739.48 367.576 740.5 367.576 742.24V748H365.056V737.6H367.316L367.516 738.96C367.936 738.04 368.996 737.34 370.376 737.34C372.816 737.34 373.996 738.98 374.036 741.34V741.54H371.516ZM383.399 748V741.7C383.399 740.5 382.839 739.66 381.479 739.66C380.579 739.66 379.919 740.22 379.579 740.98C379.239 741.76 379.239 742.78 379.239 743.64V748H376.739V737.6H378.839L379.039 738.96C379.659 737.86 380.879 737.34 382.179 737.34C384.519 737.34 385.899 738.98 385.899 741.14V748H383.399ZM396.021 748L395.821 746.62C395.321 747.64 394.121 748.26 392.801 748.26C390.521 748.26 388.981 746.6 388.981 744.38V737.6H391.481V743.82C391.481 745.04 392.101 745.96 393.501 745.96C394.981 745.96 395.601 744.74 395.601 743.4V737.6H398.101V748H396.021ZM405.003 740.46C405.003 740 404.723 739.52 404.103 739.52C403.323 739.52 403.063 740.28 403.063 740.94V748H400.723V737.6H402.483L402.723 738.84C402.903 738.12 403.603 737.38 404.723 737.38C406.123 737.38 406.623 738.24 406.743 739C406.983 738.24 407.663 737.38 409.123 737.38C410.683 737.38 411.603 738.52 411.603 740.38V748H409.243V740.46C409.243 740 408.963 739.52 408.343 739.52C407.563 739.52 407.303 740.28 407.303 740.94V748H405.003V740.46ZM432.948 746.92C432.008 747.76 430.808 748.28 429.368 748.28C427.048 748.28 424.928 746.82 424.928 744.24C424.928 742.5 425.828 741.32 427.248 740.38L427.148 740.26C426.468 739.48 425.648 738.42 425.648 736.98C425.648 735.1 427.188 733.54 429.488 733.54C431.568 733.54 433.088 734.96 433.088 736.82C433.088 738.56 431.928 739.78 430.448 740.74L432.808 743.42C433.048 742.6 433.168 741.66 433.168 740.68V740.02H436.528V742H435.108C435.068 743.08 434.788 744.16 434.308 745.12L436.868 748H433.888L432.948 746.92ZM429.568 746.2C430.428 746.2 431.128 745.92 431.648 745.44L428.588 741.92C427.588 742.62 427.228 743.34 427.228 744.1C427.228 745.42 428.228 746.2 429.568 746.2ZM427.888 737C427.888 737.82 428.468 738.5 429.048 739.16L429.088 739.22C430.088 738.58 430.928 737.9 430.928 736.96C430.928 736.18 430.348 735.52 429.468 735.52C428.588 735.52 427.888 736.12 427.888 737ZM461.033 747.86C460.753 748 460.233 748.16 459.633 748.16C458.413 748.16 457.773 747.42 457.693 746.64C457.193 747.48 456.073 748.28 454.573 748.28C452.033 748.28 450.733 746.74 450.733 745.04C450.733 743.06 452.153 741.94 454.453 741.76L457.453 741.52V740.96C457.453 739.92 456.893 739.24 455.553 739.24C454.333 739.24 453.653 739.86 453.593 740.82H451.153C451.313 738.48 453.233 737.32 455.593 737.32C457.413 737.32 458.973 737.88 459.593 739.44C459.853 740.1 459.893 740.84 459.893 741.54V745.38C459.893 745.96 460.173 746.08 460.613 746.08C460.813 746.08 460.973 746.04 461.033 746.02V747.86ZM457.453 743.34L454.833 743.58C453.833 743.68 453.173 744.1 453.173 744.94C453.173 745.78 453.793 746.28 454.833 746.28C456.433 746.28 457.453 745.38 457.453 743.84V743.34ZM467.015 740.46C467.015 740 466.735 739.52 466.115 739.52C465.335 739.52 465.075 740.28 465.075 740.94V748H462.735V737.6H464.495L464.735 738.84C464.915 738.12 465.615 737.38 466.735 737.38C468.135 737.38 468.635 738.24 468.755 739C468.995 738.24 469.675 737.38 471.135 737.38C472.695 737.38 473.615 738.52 473.615 740.38V748H471.255V740.46C471.255 740 470.975 739.52 470.355 739.52C469.575 739.52 469.315 740.28 469.315 740.94V748H467.015V740.46ZM485.837 747.86C485.557 748 485.037 748.16 484.437 748.16C483.217 748.16 482.577 747.42 482.497 746.64C481.997 747.48 480.877 748.28 479.377 748.28C476.837 748.28 475.537 746.74 475.537 745.04C475.537 743.06 476.957 741.94 479.257 741.76L482.257 741.52V740.96C482.257 739.92 481.697 739.24 480.357 739.24C479.137 739.24 478.457 739.86 478.397 740.82H475.957C476.117 738.48 478.037 737.32 480.397 737.32C482.217 737.32 483.777 737.88 484.397 739.44C484.657 740.1 484.697 740.84 484.697 741.54V745.38C484.697 745.96 484.977 746.08 485.417 746.08C485.617 746.08 485.777 746.04 485.837 746.02V747.86ZM482.257 743.34L479.637 743.58C478.637 743.68 477.977 744.1 477.977 744.94C477.977 745.78 478.597 746.28 479.637 746.28C481.237 746.28 482.257 745.38 482.257 743.84V743.34ZM495.54 741.54C495.54 740.44 495.06 739.48 493.72 739.48C492.42 739.48 491.6 740.5 491.6 742.24V748H489.08V737.6H491.34L491.54 738.96C491.96 738.04 493.02 737.34 494.4 737.34C496.84 737.34 498.02 738.98 498.06 741.34V741.54H495.54ZM510.142 742.52C510.142 743.14 510.082 743.44 510.082 743.52H502.822C502.822 744.94 503.682 746.3 505.302 746.3C506.482 746.3 507.322 745.72 507.482 744.88H509.862C509.782 745.48 509.362 746.34 508.962 746.82C508.062 747.86 506.702 748.28 505.342 748.28C503.862 748.28 502.762 747.78 501.922 747C500.842 746 500.282 744.52 500.282 742.8C500.282 741.14 500.842 739.68 501.882 738.66C502.682 737.88 503.802 737.32 505.262 737.32C506.862 737.32 508.342 737.94 509.222 739.22C509.942 740.28 510.142 741.34 510.142 742.52ZM507.602 741.7C507.602 740.44 506.922 739.3 505.282 739.3C503.902 739.3 502.942 740.3 502.842 741.7H507.602ZM522.604 747.58C522.144 747.86 521.104 748.14 519.764 748.14C517.104 748.14 515.984 746.66 515.984 744.5V739.66H513.144V737.6H515.984V734.86L518.484 734.14V737.6H522.544V739.66H518.484V744.2C518.484 745.42 519.184 745.88 520.184 745.88C521.284 745.88 522.224 745.58 522.604 745.44V747.58ZM535.007 747.58C534.547 747.86 533.507 748.14 532.167 748.14C529.507 748.14 528.387 746.66 528.387 744.5V739.66H525.547V737.6H528.387V734.86L530.887 734.14V737.6H534.947V739.66H530.887V744.2C530.887 745.42 531.587 745.88 532.587 745.88C533.687 745.88 534.627 745.58 535.007 745.44V747.58ZM539.889 742.8C539.889 744.9 540.909 746.1 542.489 746.1C544.069 746.1 545.089 744.9 545.089 742.8C545.089 740.7 544.069 739.5 542.489 739.5C540.909 739.5 539.889 740.7 539.889 742.8ZM537.349 742.8C537.349 739.4 539.569 737.32 542.489 737.32C545.409 737.32 547.629 739.4 547.629 742.8C547.629 746.2 545.409 748.28 542.489 748.28C539.569 748.28 537.349 746.2 537.349 742.8ZM556.691 748C556.691 750.12 555.951 751.74 553.731 752.54L553.071 751.2C554.491 750.66 555.011 749.68 555.011 748H553.151V744.48H556.691V748ZM578.636 740.46C578.636 740 578.356 739.52 577.736 739.52C576.956 739.52 576.696 740.28 576.696 740.94V748H574.356V737.6H576.116L576.356 738.84C576.536 738.12 577.236 737.38 578.356 737.38C579.756 737.38 580.256 738.24 580.376 739C580.616 738.24 581.296 737.38 582.756 737.38C584.316 737.38 585.236 738.52 585.236 740.38V748H582.876V740.46C582.876 740 582.596 739.52 581.976 739.52C581.196 739.52 580.936 740.28 580.936 740.94V748H578.636V740.46ZM596.798 744.8C596.798 747.24 594.578 748.28 592.118 748.28C589.618 748.28 587.378 747.06 587.378 744.66H589.778C589.818 745.78 590.898 746.36 592.198 746.36C593.598 746.36 594.478 745.84 594.478 745.04C594.478 744.46 594.158 744.06 593.258 743.92L590.898 743.56C588.638 743.24 587.818 741.92 587.818 740.68C587.818 738.74 589.578 737.32 592.198 737.32C594.718 737.32 596.518 738.7 596.518 740.68H594.138C594.098 739.82 593.418 739.2 592.198 739.2C591.018 739.2 590.178 739.68 590.178 740.46C590.178 741.18 590.778 741.42 591.438 741.52L593.818 741.86C595.598 742.1 596.798 743.16 596.798 744.8ZM600.221 741.18C600.221 738.76 602.221 737.32 604.561 737.32C605.421 737.32 606.321 737.56 607.001 737.96C607.401 737.04 608.241 736.6 609.121 736.6C609.521 736.6 609.701 736.64 609.881 736.68V738.66C609.821 738.64 609.601 738.62 609.481 738.62C608.961 738.62 608.501 738.82 608.341 739.28C608.681 739.84 608.881 740.46 608.881 741.16C608.881 743.54 606.801 744.94 604.561 744.94C603.941 744.94 603.341 744.84 602.801 744.64C602.501 744.8 602.241 745.02 602.241 745.36C602.241 745.98 602.781 746.08 603.301 746.08H605.221C606.261 746.08 607.601 746.1 608.581 746.78C609.481 747.4 609.801 748.24 609.801 749.24C609.801 751.86 607.041 752.6 604.721 752.6C602.321 752.6 599.601 752.12 599.601 749.68C599.601 748.74 600.261 748 601.141 747.6C600.461 747.26 600.101 746.56 600.101 745.88C600.101 745.04 600.641 744.3 601.501 743.9C600.721 743.26 600.221 742.34 600.221 741.18ZM607.461 749.3C607.461 748.1 606.101 748.06 605.161 748.06H602.761C602.221 748.22 601.821 748.64 601.821 749.3C601.821 750.62 603.641 750.7 604.621 750.7C605.621 750.7 607.461 750.68 607.461 749.3ZM606.481 741.14C606.481 739.94 605.681 739.18 604.561 739.18C603.441 739.18 602.641 739.94 602.641 741.14C602.641 742.34 603.441 743.08 604.561 743.08C605.681 743.08 606.481 742.34 606.481 741.14Z" fill="white"/>
  <path d="M83.56 714.28C83.56 719.144 79.208 721.448 74.856 721.448C70.696 721.448 66.184 718.984 66.184 713.736H70.408C70.408 716.68 72.648 717.896 74.92 717.896C77.16 717.896 79.464 716.968 79.464 714.536C79.464 712.936 78.152 712.072 76.52 711.784L73.096 711.208C69.256 710.536 66.792 708.552 66.792 704.936C66.792 700.872 70.408 697.864 74.952 697.864C79.688 697.864 83.144 700.904 83.208 705H79.048C78.952 702.952 77.544 701.384 74.888 701.384C72.808 701.384 70.856 702.44 70.856 704.616C70.856 706.024 71.944 706.888 73.992 707.24L77.16 707.752C80.872 708.36 83.56 710.472 83.56 714.28ZM92.5878 721H87.9158L85.3238 704.36H89.1958L90.6678 717.032L92.6838 707.336H96.8438L98.8598 717.032L100.332 704.36H104.204L101.548 721H96.9398L94.7638 711.208L92.5878 721ZM122.384 712.232C122.384 713.224 122.288 713.704 122.288 713.832H110.672C110.672 716.104 112.048 718.28 114.64 718.28C116.528 718.28 117.872 717.352 118.128 716.008H121.936C121.808 716.968 121.135 718.344 120.496 719.112C119.056 720.776 116.88 721.448 114.704 721.448C112.336 721.448 110.576 720.648 109.232 719.4C107.504 717.8 106.608 715.432 106.608 712.68C106.608 710.024 107.504 707.688 109.168 706.056C110.448 704.808 112.24 703.912 114.576 703.912C117.136 703.912 119.504 704.904 120.912 706.952C122.064 708.648 122.384 710.344 122.384 712.232ZM118.32 710.92C118.32 708.904 117.232 707.08 114.608 707.08C112.4 707.08 110.864 708.68 110.704 710.92H118.32ZM142.227 712.232C142.227 713.224 142.131 713.704 142.131 713.832H130.515C130.515 716.104 131.891 718.28 134.483 718.28C136.371 718.28 137.715 717.352 137.971 716.008H141.779C141.651 716.968 140.979 718.344 140.339 719.112C138.899 720.776 136.723 721.448 134.547 721.448C132.179 721.448 130.419 720.648 129.075 719.4C127.347 717.8 126.451 715.432 126.451 712.68C126.451 710.024 127.347 707.688 129.011 706.056C130.291 704.808 132.083 703.912 134.419 703.912C136.979 703.912 139.347 704.904 140.755 706.952C141.907 708.648 142.227 710.344 142.227 712.232ZM138.163 710.92C138.163 708.904 137.075 707.08 134.451 707.08C132.243 707.08 130.707 708.68 130.547 710.92H138.163ZM162.167 720.328C161.431 720.776 159.767 721.224 157.623 721.224C153.367 721.224 151.575 718.856 151.575 715.4V707.656H147.031V704.36H151.575V699.976L155.575 698.824V704.36H162.071V707.656H155.575V714.92C155.575 716.872 156.695 717.608 158.295 717.608C160.055 717.608 161.559 717.128 162.167 716.904V720.328ZM193.983 717.736C195.231 717.736 196.319 717.352 197.183 716.488C198.751 714.92 198.751 711.56 198.751 709.672C198.751 707.784 198.751 704.424 197.183 702.856C196.319 701.992 195.231 701.608 193.983 701.608C192.735 701.608 191.647 701.992 190.783 702.856C189.215 704.424 189.215 707.784 189.215 709.672C189.215 711.56 189.215 714.92 190.783 716.488C191.647 717.352 192.735 717.736 193.983 717.736ZM193.983 721.448C191.679 721.448 189.599 720.744 187.935 719.08C185.439 716.584 185.023 713.288 185.023 709.672C185.023 706.056 185.439 702.76 187.935 700.264C189.599 698.6 191.679 697.896 193.983 697.896C196.287 697.896 198.367 698.6 200.031 700.264C202.527 702.76 202.943 706.056 202.943 709.672C202.943 713.288 202.527 716.584 200.031 719.08C198.367 720.744 196.287 721.448 193.983 721.448ZM206.658 721V717.704H211.97V700.84H207.458V697.544H216.002V717.704H221.41V721H206.658ZM224.998 712.712C224.998 707.784 227.526 703.944 232.358 703.944C234.822 703.944 236.134 704.968 236.742 705.96V697.544H240.742V721H237.286L237.03 719.016C236.07 720.552 234.438 721.416 232.166 721.416C227.334 721.416 224.998 717.128 224.998 712.712ZM232.998 718.024C235.974 718.024 236.934 715.208 236.934 712.648C236.934 710.28 236.07 707.304 232.998 707.304C229.926 707.304 229.062 710.28 229.062 712.648C229.062 715.208 230.022 718.024 232.998 718.024ZM266.83 721V698.312H270.958V717.096H281.966V721H266.83ZM301.777 720.776C301.329 721 300.497 721.256 299.537 721.256C297.585 721.256 296.561 720.072 296.433 718.824C295.633 720.168 293.841 721.448 291.441 721.448C287.377 721.448 285.297 718.984 285.297 716.264C285.297 713.096 287.569 711.304 291.249 711.016L296.049 710.632V709.736C296.049 708.072 295.153 706.984 293.009 706.984C291.057 706.984 289.969 707.976 289.873 709.512H285.969C286.225 705.768 289.297 703.912 293.073 703.912C295.985 703.912 298.481 704.808 299.473 707.304C299.889 708.36 299.953 709.544 299.953 710.664V716.808C299.953 717.736 300.401 717.928 301.105 717.928C301.425 717.928 301.681 717.864 301.777 717.832V720.776ZM296.049 713.544L291.857 713.928C290.257 714.088 289.201 714.76 289.201 716.104C289.201 717.448 290.193 718.248 291.857 718.248C294.417 718.248 296.049 716.808 296.049 714.344V713.544ZM304.373 712.712C304.373 707.784 306.901 703.944 311.733 703.944C314.197 703.944 315.509 704.968 316.117 705.96V697.544H320.117V721H316.661L316.405 719.016C315.445 720.552 313.813 721.416 311.541 721.416C306.709 721.416 304.373 717.128 304.373 712.712ZM312.373 718.024C315.349 718.024 316.309 715.208 316.309 712.648C316.309 710.28 315.445 707.304 312.373 707.304C309.301 707.304 308.437 710.28 308.437 712.648C308.437 715.208 309.397 718.024 312.373 718.024ZM331.257 720.712L324.121 704.36H328.569L333.241 715.88L337.657 704.36H341.785L333.721 724.296C332.729 726.728 331.065 728.264 327.929 728.264C326.777 728.264 325.593 727.976 324.761 727.56V724.168C325.273 724.456 326.489 724.776 327.417 724.776C328.857 724.776 329.881 724.232 330.489 722.664L331.257 720.712Z" fill="white"/>
  <path d="M70.4 878.06L66.94 880.48V877.76L70.76 875.1H72.9V886.82H76.2V889H66.92V886.82H70.4V878.06ZM101.445 883.82C101.445 886.58 99.9447 889.26 96.8647 889.26C95.5447 889.26 94.3447 888.72 93.7247 887.76L93.5647 889H91.4047V874.34H93.9047V879.6C94.3647 878.98 95.3447 878.34 96.8447 878.34C99.9247 878.34 101.445 880.74 101.445 883.82ZM96.3447 887.14C98.2047 887.14 98.9047 885.44 98.9047 883.78C98.9047 882.24 98.2647 880.44 96.3447 880.44C94.4247 880.44 93.7847 882.2 93.7847 883.78C93.7847 885.48 94.4847 887.14 96.3447 887.14ZM105.807 883.8C105.807 885.9 106.827 887.1 108.407 887.1C109.987 887.1 111.007 885.9 111.007 883.8C111.007 881.7 109.987 880.5 108.407 880.5C106.827 880.5 105.807 881.7 105.807 883.8ZM103.267 883.8C103.267 880.4 105.487 878.32 108.407 878.32C111.327 878.32 113.547 880.4 113.547 883.8C113.547 887.2 111.327 889.28 108.407 889.28C105.487 889.28 103.267 887.2 103.267 883.8ZM123.169 889L122.969 887.62C122.469 888.64 121.269 889.26 119.949 889.26C117.669 889.26 116.129 887.6 116.129 885.38V878.6H118.629V884.82C118.629 886.04 119.249 886.96 120.649 886.96C122.129 886.96 122.749 885.74 122.749 884.4V878.6H125.249V889H123.169ZM135.872 882.54C135.872 881.44 135.392 880.48 134.052 880.48C132.752 880.48 131.932 881.5 131.932 883.24V889H129.412V878.6H131.672L131.872 879.96C132.292 879.04 133.352 878.34 134.732 878.34C137.172 878.34 138.352 879.98 138.392 882.34V882.54H135.872ZM151.054 883.82C151.054 886.58 149.554 889.26 146.474 889.26C145.154 889.26 143.954 888.72 143.334 887.76L143.174 889H141.014V874.34H143.514V879.6C143.974 878.98 144.954 878.34 146.454 878.34C149.534 878.34 151.054 880.74 151.054 883.82ZM145.954 887.14C147.814 887.14 148.514 885.44 148.514 883.78C148.514 882.24 147.874 880.44 145.954 880.44C144.034 880.44 143.394 882.2 143.394 883.78C143.394 885.48 144.094 887.14 145.954 887.14ZM155.416 883.8C155.416 885.9 156.436 887.1 158.016 887.1C159.596 887.1 160.616 885.9 160.616 883.8C160.616 881.7 159.596 880.5 158.016 880.5C156.436 880.5 155.416 881.7 155.416 883.8ZM152.876 883.8C152.876 880.4 155.096 878.32 158.016 878.32C160.936 878.32 163.156 880.4 163.156 883.8C163.156 887.2 160.936 889.28 158.016 889.28C155.096 889.28 152.876 887.2 152.876 883.8ZM172.559 889V882.7C172.559 881.5 171.999 880.66 170.639 880.66C169.739 880.66 169.079 881.22 168.739 881.98C168.399 882.76 168.399 883.78 168.399 884.64V889H165.899V878.6H167.999L168.199 879.96C168.819 878.86 170.039 878.34 171.339 878.34C173.679 878.34 175.059 879.98 175.059 882.14V889H172.559ZM184.621 889C184.621 891.12 183.881 892.74 181.661 893.54L181.001 892.2C182.421 891.66 182.941 890.68 182.941 889H181.081V885.48H184.621V889ZM212.386 885.04C212.386 887.82 210.186 889.28 207.446 889.28C204.606 889.28 202.546 887.48 202.506 884.88H205.026C205.126 886.24 206.086 887.08 207.466 887.08C208.926 887.08 209.846 886.28 209.846 885C209.846 883.56 208.746 882.9 207.286 882.9H206.126V880.72H207.286C208.826 880.72 209.546 880 209.546 878.9C209.546 877.84 208.726 877.06 207.466 877.06C206.026 877.06 205.166 877.96 205.146 879.1H202.606C202.646 876.6 204.786 874.86 207.466 874.86C210.106 874.86 212.086 876.44 212.086 878.84C212.086 880.1 211.306 881.34 209.986 881.78C211.506 882.18 212.386 883.6 212.386 885.04ZM216.348 889.3H214.428L223.708 874.54H225.628L216.348 889.3ZM236.07 886.22V889H233.57V886.22H226.95V883.66L232.37 875.14H235.17L229.53 883.96H233.57V880.32H236.07V883.96H237.95V886.22H236.07ZM262.035 885.36C261.995 886.18 261.695 887.02 261.195 887.64C260.435 888.54 259.215 889.28 257.435 889.28C255.675 889.28 254.395 888.52 253.635 887.64C252.815 886.66 252.355 885.32 252.355 883.8C252.355 882.28 252.835 880.94 253.655 879.96C254.415 879.08 255.675 878.32 257.435 878.32C259.215 878.32 260.435 879.06 261.195 879.96C261.695 880.58 261.995 881.42 262.035 882.24H259.575C259.495 881.18 258.695 880.48 257.435 880.48C256.595 880.48 256.055 880.84 255.715 881.22C255.075 881.9 254.875 882.82 254.875 883.8C254.875 884.78 255.075 885.74 255.715 886.4C256.075 886.78 256.595 887.12 257.435 887.12C258.575 887.12 259.415 886.52 259.575 885.36H262.035ZM274.998 888.86C274.718 889 274.198 889.16 273.598 889.16C272.378 889.16 271.738 888.42 271.658 887.64C271.158 888.48 270.038 889.28 268.538 889.28C265.998 889.28 264.698 887.74 264.698 886.04C264.698 884.06 266.118 882.94 268.418 882.76L271.418 882.52V881.96C271.418 880.92 270.858 880.24 269.518 880.24C268.298 880.24 267.618 880.86 267.558 881.82H265.118C265.278 879.48 267.198 878.32 269.558 878.32C271.378 878.32 272.938 878.88 273.558 880.44C273.818 881.1 273.858 881.84 273.858 882.54V886.38C273.858 886.96 274.138 887.08 274.578 887.08C274.778 887.08 274.938 887.04 274.998 887.02V888.86ZM271.418 884.34L268.798 884.58C267.798 884.68 267.138 885.1 267.138 885.94C267.138 886.78 267.758 887.28 268.798 887.28C270.398 887.28 271.418 886.38 271.418 884.84V884.34ZM280.98 881.46C280.98 881 280.7 880.52 280.08 880.52C279.3 880.52 279.04 881.28 279.04 881.94V889H276.7V878.6H278.46L278.7 879.84C278.88 879.12 279.58 878.38 280.7 878.38C282.1 878.38 282.6 879.24 282.72 880C282.96 879.24 283.64 878.38 285.1 878.38C286.66 878.38 287.58 879.52 287.58 881.38V889H285.22V881.46C285.22 881 284.94 880.52 284.32 880.52C283.54 880.52 283.28 881.28 283.28 881.94V889H280.98V881.46ZM299.802 883.78C299.802 886.84 298.362 889.26 295.282 889.26C293.782 889.26 293.042 888.62 292.542 888V893.3H290.042V878.6H292.202L292.362 879.84C293.002 878.88 294.022 878.34 295.302 878.34C298.382 878.34 299.802 881.02 299.802 883.78ZM294.782 880.46C292.922 880.46 292.422 882.22 292.422 883.82C292.422 885.3 292.862 887.16 294.782 887.16C296.702 887.16 297.262 885.3 297.262 883.82C297.262 882.22 296.642 880.46 294.782 880.46ZM312.205 888.86C311.925 889 311.405 889.16 310.805 889.16C309.585 889.16 308.945 888.42 308.865 887.64C308.365 888.48 307.245 889.28 305.745 889.28C303.205 889.28 301.905 887.74 301.905 886.04C301.905 884.06 303.325 882.94 305.625 882.76L308.625 882.52V881.96C308.625 880.92 308.065 880.24 306.725 880.24C305.505 880.24 304.825 880.86 304.765 881.82H302.325C302.485 879.48 304.405 878.32 306.765 878.32C308.585 878.32 310.145 878.88 310.765 880.44C311.025 881.1 311.065 881.84 311.065 882.54V886.38C311.065 886.96 311.345 887.08 311.785 887.08C311.985 887.08 312.145 887.04 312.205 887.02V888.86ZM308.625 884.34L306.005 884.58C305.005 884.68 304.345 885.1 304.345 885.94C304.345 886.78 304.965 887.28 306.005 887.28C307.605 887.28 308.625 886.38 308.625 884.84V884.34ZM321.907 882.54C321.907 881.44 321.427 880.48 320.087 880.48C318.787 880.48 317.967 881.5 317.967 883.24V889H315.447V878.6H317.707L317.907 879.96C318.327 879.04 319.387 878.34 320.767 878.34C323.207 878.34 324.387 879.98 324.427 882.34V882.54H321.907ZM327.909 878.6H333.309V886.94H336.729V889H327.349V886.94H330.769V880.66H327.909V878.6ZM330.589 876.98V874.34H333.469V876.98H330.589ZM345.852 889C345.852 891.12 345.112 892.74 342.892 893.54L342.232 892.2C343.652 891.66 344.172 890.68 344.172 889H342.312V885.48H345.852V889ZM373.616 885.04C373.616 887.82 371.416 889.28 368.676 889.28C365.836 889.28 363.776 887.48 363.736 884.88H366.256C366.356 886.24 367.316 887.08 368.696 887.08C370.156 887.08 371.076 886.28 371.076 885C371.076 883.56 369.976 882.9 368.516 882.9H367.356V880.72H368.516C370.056 880.72 370.776 880 370.776 878.9C370.776 877.84 369.956 877.06 368.696 877.06C367.256 877.06 366.396 877.96 366.376 879.1H363.836C363.876 876.6 366.016 874.86 368.696 874.86C371.336 874.86 373.316 876.44 373.316 878.84C373.316 880.1 372.536 881.34 371.216 881.78C372.736 882.18 373.616 883.6 373.616 885.04ZM377.579 889.3H375.659L384.939 874.54H386.859L377.579 889.3ZM397.301 886.22V889H394.801V886.22H388.181V883.66L393.601 875.14H396.401L390.761 883.96H394.801V880.32H397.301V883.96H399.181V886.22H397.301ZM423.826 888.86C423.546 889 423.026 889.16 422.426 889.16C421.206 889.16 420.566 888.42 420.486 887.64C419.986 888.48 418.866 889.28 417.366 889.28C414.826 889.28 413.526 887.74 413.526 886.04C413.526 884.06 414.946 882.94 417.246 882.76L420.246 882.52V881.96C420.246 880.92 419.686 880.24 418.346 880.24C417.126 880.24 416.446 880.86 416.386 881.82H413.946C414.106 879.48 416.026 878.32 418.386 878.32C420.206 878.32 421.766 878.88 422.386 880.44C422.646 881.1 422.686 881.84 422.686 882.54V886.38C422.686 886.96 422.966 887.08 423.406 887.08C423.606 887.08 423.766 887.04 423.826 887.02V888.86ZM420.246 884.34L417.626 884.58C416.626 884.68 415.966 885.1 415.966 885.94C415.966 886.78 416.586 887.28 417.626 887.28C419.226 887.28 420.246 886.38 420.246 884.84V884.34ZM429.808 881.46C429.808 881 429.528 880.52 428.908 880.52C428.128 880.52 427.868 881.28 427.868 881.94V889H425.528V878.6H427.288L427.528 879.84C427.708 879.12 428.408 878.38 429.528 878.38C430.928 878.38 431.428 879.24 431.548 880C431.788 879.24 432.468 878.38 433.928 878.38C435.488 878.38 436.408 879.52 436.408 881.38V889H434.048V881.46C434.048 881 433.768 880.52 433.148 880.52C432.368 880.52 432.108 881.28 432.108 881.94V889H429.808V881.46ZM448.63 888.86C448.35 889 447.83 889.16 447.23 889.16C446.01 889.16 445.37 888.42 445.29 887.64C444.79 888.48 443.67 889.28 442.17 889.28C439.63 889.28 438.33 887.74 438.33 886.04C438.33 884.06 439.75 882.94 442.05 882.76L445.05 882.52V881.96C445.05 880.92 444.49 880.24 443.15 880.24C441.93 880.24 441.25 880.86 441.19 881.82H438.75C438.91 879.48 440.83 878.32 443.19 878.32C445.01 878.32 446.57 878.88 447.19 880.44C447.45 881.1 447.49 881.84 447.49 882.54V886.38C447.49 886.96 447.77 887.08 448.21 887.08C448.41 887.08 448.57 887.04 448.63 887.02V888.86ZM445.05 884.34L442.43 884.58C441.43 884.68 440.77 885.1 440.77 885.94C440.77 886.78 441.39 887.28 442.43 887.28C444.03 887.28 445.05 886.38 445.05 884.84V884.34ZM458.333 882.54C458.333 881.44 457.853 880.48 456.513 880.48C455.213 880.48 454.393 881.5 454.393 883.24V889H451.873V878.6H454.133L454.333 879.96C454.753 879.04 455.813 878.34 457.193 878.34C459.633 878.34 460.813 879.98 460.853 882.34V882.54H458.333ZM472.935 883.52C472.935 884.14 472.875 884.44 472.875 884.52H465.615C465.615 885.94 466.475 887.3 468.095 887.3C469.275 887.3 470.115 886.72 470.275 885.88H472.655C472.575 886.48 472.155 887.34 471.755 887.82C470.855 888.86 469.495 889.28 468.135 889.28C466.655 889.28 465.555 888.78 464.715 888C463.635 887 463.075 885.52 463.075 883.8C463.075 882.14 463.635 880.68 464.675 879.66C465.475 878.88 466.595 878.32 468.055 878.32C469.655 878.32 471.135 878.94 472.015 880.22C472.735 881.28 472.935 882.34 472.935 883.52ZM470.395 882.7C470.395 881.44 469.715 880.3 468.075 880.3C466.695 880.3 465.735 881.3 465.635 882.7H470.395ZM485.397 888.58C484.937 888.86 483.897 889.14 482.557 889.14C479.897 889.14 478.777 887.66 478.777 885.5V880.66H475.937V878.6H478.777V875.86L481.277 875.14V878.6H485.337V880.66H481.277V885.2C481.277 886.42 481.977 886.88 482.977 886.88C484.077 886.88 485.017 886.58 485.397 886.44V888.58ZM497.8 888.58C497.34 888.86 496.3 889.14 494.96 889.14C492.3 889.14 491.18 887.66 491.18 885.5V880.66H488.34V878.6H491.18V875.86L493.68 875.14V878.6H497.74V880.66H493.68V885.2C493.68 886.42 494.38 886.88 495.38 886.88C496.48 886.88 497.42 886.58 497.8 886.44V888.58ZM502.682 883.8C502.682 885.9 503.702 887.1 505.282 887.1C506.862 887.1 507.882 885.9 507.882 883.8C507.882 881.7 506.862 880.5 505.282 880.5C503.702 880.5 502.682 881.7 502.682 883.8ZM500.142 883.8C500.142 880.4 502.362 878.32 505.282 878.32C508.202 878.32 510.422 880.4 510.422 883.8C510.422 887.2 508.202 889.28 505.282 889.28C502.362 889.28 500.142 887.2 500.142 883.8ZM519.484 889C519.484 891.12 518.744 892.74 516.524 893.54L515.864 892.2C517.284 891.66 517.804 890.68 517.804 889H515.944V885.48H519.484V889ZM541.689 878.06L538.229 880.48V877.76L542.049 875.1H544.189V886.82H547.489V889H538.209V886.82H541.689V878.06ZM551.211 889.3H549.291L558.571 874.54H560.491L551.211 889.3ZM562.814 889V887.02L568.454 881.06C569.154 880.34 569.354 879.58 569.354 879.02C569.354 877.76 568.554 877.06 567.414 877.06C566.014 877.06 565.314 877.98 565.314 879.3C565.314 879.36 565.314 879.48 565.334 879.62H562.754C562.734 879.46 562.734 879.32 562.734 879.28C562.734 876.84 564.354 874.86 567.434 874.86C569.894 874.86 571.894 876.42 571.894 879.06C571.894 880.4 571.294 881.5 570.194 882.64L566.234 886.74H572.214V889H562.814ZM591.298 878.06L587.838 880.48V877.76L591.658 875.1H593.798V886.82H597.098V889H587.818V886.82H591.298V878.06ZM609.701 884.34C609.701 887.28 607.761 889.28 604.681 889.28C601.841 889.28 599.861 887.56 599.721 884.94H602.241C602.341 886.3 603.361 887.06 604.701 887.06C606.301 887.06 607.141 885.98 607.141 884.44C607.141 883.02 606.321 881.96 604.701 881.96C603.841 881.96 602.941 882.36 602.521 883.08H600.001L600.441 875.14H609.001V877.38H602.561L602.341 880.84C602.961 880.14 603.981 879.76 605.241 879.76C608.081 879.76 609.701 881.7 609.701 884.34ZM616.103 878.06L612.643 880.48V877.76L616.463 875.1H618.603V886.82H621.903V889H612.623V886.82H616.103V878.06Z" fill="white"/>
  <path d="M74.92 858.736C76.168 858.736 77.256 858.352 78.12 857.488C79.688 855.92 79.688 852.56 79.688 850.672C79.688 848.784 79.688 845.424 78.12 843.856C77.256 842.992 76.168 842.608 74.92 842.608C73.672 842.608 72.584 842.992 71.72 843.856C70.152 845.424 70.152 848.784 70.152 850.672C70.152 852.56 70.152 855.92 71.72 857.488C72.584 858.352 73.672 858.736 74.92 858.736ZM74.92 862.448C72.616 862.448 70.536 861.744 68.872 860.08C66.376 857.584 65.96 854.288 65.96 850.672C65.96 847.056 66.376 843.76 68.872 841.264C70.536 839.6 72.616 838.896 74.92 838.896C77.224 838.896 79.304 839.6 80.968 841.264C83.464 843.76 83.88 847.056 83.88 850.672C83.88 854.288 83.464 857.584 80.968 860.08C79.304 861.744 77.224 862.448 74.92 862.448ZM98.1878 862V851.92C98.1878 850 97.2918 848.656 95.1158 848.656C93.6758 848.656 92.6198 849.552 92.0758 850.768C91.5318 852.016 91.5318 853.648 91.5318 855.024V862H87.5318V845.36H90.8918L91.2118 847.536C92.2038 845.776 94.1558 844.944 96.2358 844.944C99.9798 844.944 102.188 847.568 102.188 851.024V862H98.1878ZM122.384 853.232C122.384 854.224 122.288 854.704 122.288 854.832H110.672C110.672 857.104 112.048 859.28 114.64 859.28C116.528 859.28 117.872 858.352 118.128 857.008H121.936C121.808 857.968 121.135 859.344 120.496 860.112C119.056 861.776 116.88 862.448 114.704 862.448C112.336 862.448 110.576 861.648 109.232 860.4C107.504 858.8 106.608 856.432 106.608 853.68C106.608 851.024 107.504 848.688 109.168 847.056C110.448 845.808 112.24 844.912 114.576 844.912C117.136 844.912 119.504 845.904 120.912 847.952C122.064 849.648 122.384 851.344 122.384 853.232ZM118.32 851.92C118.32 849.904 117.232 848.08 114.608 848.08C112.4 848.08 110.864 849.68 110.704 851.92H118.32ZM162.871 861.776C162.423 862 161.591 862.256 160.631 862.256C158.679 862.256 157.655 861.072 157.527 859.824C156.727 861.168 154.935 862.448 152.535 862.448C148.471 862.448 146.391 859.984 146.391 857.264C146.391 854.096 148.663 852.304 152.343 852.016L157.143 851.632V850.736C157.143 849.072 156.247 847.984 154.103 847.984C152.151 847.984 151.063 848.976 150.967 850.512H147.063C147.319 846.768 150.391 844.912 154.167 844.912C157.079 844.912 159.575 845.808 160.567 848.304C160.983 849.36 161.047 850.544 161.047 851.664V857.808C161.047 858.736 161.495 858.928 162.199 858.928C162.519 858.928 162.775 858.864 162.871 858.832V861.776ZM157.143 854.544L152.951 854.928C151.351 855.088 150.295 855.76 150.295 857.104C150.295 858.448 151.287 859.248 152.951 859.248C155.511 859.248 157.143 857.808 157.143 855.344V854.544ZM182.011 861.328C181.275 861.776 179.611 862.224 177.467 862.224C173.211 862.224 171.419 859.856 171.419 856.4V848.656H166.875V845.36H171.419V840.976L175.419 839.824V845.36H181.915V848.656H175.419V855.92C175.419 857.872 176.539 858.608 178.139 858.608C179.899 858.608 181.403 858.128 182.011 857.904V861.328ZM222.402 861.776C221.954 862 221.122 862.256 220.162 862.256C218.21 862.256 217.186 861.072 217.058 859.824C216.258 861.168 214.466 862.448 212.066 862.448C208.002 862.448 205.922 859.984 205.922 857.264C205.922 854.096 208.194 852.304 211.874 852.016L216.674 851.632V850.736C216.674 849.072 215.778 847.984 213.634 847.984C211.682 847.984 210.594 848.976 210.498 850.512H206.594C206.85 846.768 209.922 844.912 213.698 844.912C216.61 844.912 219.106 845.808 220.098 848.304C220.514 849.36 220.578 850.544 220.578 851.664V857.808C220.578 858.736 221.026 858.928 221.73 858.928C222.05 858.928 222.306 858.864 222.402 858.832V861.776ZM216.674 854.544L212.482 854.928C210.882 855.088 209.826 855.76 209.826 857.104C209.826 858.448 210.818 859.248 212.482 859.248C215.042 859.248 216.674 857.808 216.674 855.344V854.544ZM255.562 843.152V862H251.466V843.152H244.394V839.312H262.634V843.152H255.562ZM267.374 845.36H276.014V858.704H281.486V862H266.478V858.704H271.95V848.656H267.374V845.36ZM271.661 842.768V838.544H276.27V842.768H271.661ZM291.505 849.936C291.505 849.2 291.057 848.432 290.065 848.432C288.817 848.432 288.401 849.648 288.401 850.704V862H284.657V845.36H287.473L287.857 847.344C288.145 846.192 289.265 845.008 291.057 845.008C293.297 845.008 294.097 846.384 294.289 847.6C294.673 846.384 295.761 845.008 298.097 845.008C300.593 845.008 302.065 846.832 302.065 849.808V862H298.289V849.936C298.289 849.2 297.841 848.432 296.849 848.432C295.601 848.432 295.185 849.648 295.185 850.704V862H291.505V849.936ZM320.821 853.232C320.821 854.224 320.725 854.704 320.725 854.832H309.109C309.109 857.104 310.485 859.28 313.077 859.28C314.965 859.28 316.309 858.352 316.565 857.008H320.373C320.245 857.968 319.573 859.344 318.933 860.112C317.493 861.776 315.317 862.448 313.141 862.448C310.773 862.448 309.013 861.648 307.669 860.4C305.941 858.8 305.045 856.432 305.045 853.68C305.045 851.024 305.941 848.688 307.605 847.056C308.885 845.808 310.677 844.912 313.013 844.912C315.573 844.912 317.941 845.904 319.349 847.952C320.501 849.648 320.821 851.344 320.821 853.232ZM316.757 851.92C316.757 849.904 315.669 848.08 313.045 848.08C310.837 848.08 309.301 849.68 309.141 851.92H316.757Z" fill="white"/>
  <path d="M70.4 1019.06L66.94 1021.48V1018.76L70.76 1016.1H72.9V1027.82H76.2V1030H66.92V1027.82H70.4V1019.06ZM81.8623 1030V1026.48H85.3823V1030H81.8623ZM101.205 1025.34C101.205 1028.28 99.2647 1030.28 96.1847 1030.28C93.3447 1030.28 91.3647 1028.56 91.2247 1025.94H93.7447C93.8447 1027.3 94.8647 1028.06 96.2047 1028.06C97.8047 1028.06 98.6447 1026.98 98.6447 1025.44C98.6447 1024.02 97.8247 1022.96 96.2047 1022.96C95.3447 1022.96 94.4447 1023.36 94.0247 1024.08H91.5047L91.9447 1016.14H100.505V1018.38H94.0647L93.8447 1021.84C94.4647 1021.14 95.4847 1020.76 96.7447 1020.76C99.5847 1020.76 101.205 1022.7 101.205 1025.34ZM122.289 1030H119.429L115.289 1019.6H118.009L120.909 1027.32L123.649 1019.6H126.309L122.289 1030ZM130.612 1024.8C130.612 1026.9 131.632 1028.1 133.212 1028.1C134.792 1028.1 135.812 1026.9 135.812 1024.8C135.812 1022.7 134.792 1021.5 133.212 1021.5C131.632 1021.5 130.612 1022.7 130.612 1024.8ZM128.072 1024.8C128.072 1021.4 130.292 1019.32 133.212 1019.32C136.132 1019.32 138.352 1021.4 138.352 1024.8C138.352 1028.2 136.132 1030.28 133.212 1030.28C130.292 1030.28 128.072 1028.2 128.072 1024.8ZM140.194 1024.82C140.194 1021.74 141.774 1019.34 144.794 1019.34C146.334 1019.34 147.154 1019.98 147.534 1020.6V1015.34H150.034V1030H147.874L147.714 1028.76C147.114 1029.72 146.094 1030.26 144.674 1030.26C141.654 1030.26 140.194 1027.58 140.194 1024.82ZM145.194 1028.14C147.054 1028.14 147.654 1026.38 147.654 1024.78C147.654 1023.3 147.114 1021.44 145.194 1021.44C143.274 1021.44 142.734 1023.3 142.734 1024.78C142.734 1026.38 143.334 1028.14 145.194 1028.14ZM157.896 1025.66L156.356 1027.26V1030H153.856V1015.34H156.356V1023.94L160.496 1019.6H163.696L159.596 1023.86L163.676 1030H160.736L157.896 1025.66ZM175.779 1029.86C175.499 1030 174.979 1030.16 174.379 1030.16C173.159 1030.16 172.519 1029.42 172.439 1028.64C171.939 1029.48 170.819 1030.28 169.319 1030.28C166.779 1030.28 165.479 1028.74 165.479 1027.04C165.479 1025.06 166.899 1023.94 169.199 1023.76L172.199 1023.52V1022.96C172.199 1021.92 171.639 1021.24 170.299 1021.24C169.079 1021.24 168.399 1021.86 168.339 1022.82H165.899C166.059 1020.48 167.979 1019.32 170.339 1019.32C172.159 1019.32 173.719 1019.88 174.339 1021.44C174.599 1022.1 174.639 1022.84 174.639 1023.54V1027.38C174.639 1027.96 174.919 1028.08 175.359 1028.08C175.559 1028.08 175.719 1028.04 175.779 1028.02V1029.86ZM172.199 1025.34L169.579 1025.58C168.579 1025.68 167.919 1026.1 167.919 1026.94C167.919 1027.78 168.539 1028.28 169.579 1028.28C171.179 1028.28 172.199 1027.38 172.199 1025.84V1025.34ZM184.621 1030C184.621 1032.12 183.881 1033.74 181.661 1034.54L181.001 1033.2C182.421 1032.66 182.941 1031.68 182.941 1030H181.081V1026.48H184.621V1030ZM206.826 1019.06L203.366 1021.48V1018.76L207.186 1016.1H209.326V1027.82H212.626V1030H203.346V1027.82H206.826V1019.06ZM216.348 1030.3H214.428L223.708 1015.54H225.628L216.348 1030.3ZM227.95 1030V1028.02L233.59 1022.06C234.29 1021.34 234.49 1020.58 234.49 1020.02C234.49 1018.76 233.69 1018.06 232.55 1018.06C231.15 1018.06 230.45 1018.98 230.45 1020.3C230.45 1020.36 230.45 1020.48 230.47 1020.62H227.89C227.87 1020.46 227.87 1020.32 227.87 1020.28C227.87 1017.84 229.49 1015.86 232.57 1015.86C235.03 1015.86 237.03 1017.42 237.03 1020.06C237.03 1021.4 236.43 1022.5 235.33 1023.64L231.37 1027.74H237.35V1030H227.95ZM262.595 1024.78C262.595 1027.84 261.155 1030.26 258.075 1030.26C256.575 1030.26 255.835 1029.62 255.335 1029V1034.3H252.835V1019.6H254.995L255.155 1020.84C255.795 1019.88 256.815 1019.34 258.095 1019.34C261.175 1019.34 262.595 1022.02 262.595 1024.78ZM257.575 1021.46C255.715 1021.46 255.215 1023.22 255.215 1024.82C255.215 1026.3 255.655 1028.16 257.575 1028.16C259.495 1028.16 260.055 1026.3 260.055 1024.82C260.055 1023.22 259.435 1021.46 257.575 1021.46ZM274.498 1024.52C274.498 1025.14 274.438 1025.44 274.438 1025.52H267.178C267.178 1026.94 268.038 1028.3 269.658 1028.3C270.838 1028.3 271.678 1027.72 271.838 1026.88H274.218C274.138 1027.48 273.717 1028.34 273.318 1028.82C272.418 1029.86 271.058 1030.28 269.698 1030.28C268.218 1030.28 267.118 1029.78 266.278 1029C265.198 1028 264.638 1026.52 264.638 1024.8C264.638 1023.14 265.198 1021.68 266.238 1020.66C267.038 1019.88 268.158 1019.32 269.618 1019.32C271.218 1019.32 272.698 1019.94 273.578 1021.22C274.298 1022.28 274.498 1023.34 274.498 1024.52ZM271.958 1023.7C271.958 1022.44 271.278 1021.3 269.638 1021.3C268.258 1021.3 267.298 1022.3 267.198 1023.7H271.958ZM287.4 1029.86C287.12 1030 286.6 1030.16 286 1030.16C284.78 1030.16 284.14 1029.42 284.06 1028.64C283.56 1029.48 282.44 1030.28 280.94 1030.28C278.4 1030.28 277.1 1028.74 277.1 1027.04C277.1 1025.06 278.52 1023.94 280.82 1023.76L283.82 1023.52V1022.96C283.82 1021.92 283.26 1021.24 281.92 1021.24C280.7 1021.24 280.02 1021.86 279.96 1022.82H277.52C277.68 1020.48 279.6 1019.32 281.96 1019.32C283.78 1019.32 285.34 1019.88 285.96 1021.44C286.22 1022.1 286.26 1022.84 286.26 1023.54V1027.38C286.26 1027.96 286.54 1028.08 286.98 1028.08C287.18 1028.08 287.34 1028.04 287.4 1028.02V1029.86ZM283.82 1025.34L281.2 1025.58C280.2 1025.68 279.54 1026.1 279.54 1026.94C279.54 1027.78 280.16 1028.28 281.2 1028.28C282.8 1028.28 283.82 1027.38 283.82 1025.84V1025.34ZM299.242 1026.36C299.202 1027.18 298.902 1028.02 298.402 1028.64C297.642 1029.54 296.422 1030.28 294.642 1030.28C292.882 1030.28 291.602 1029.52 290.842 1028.64C290.022 1027.66 289.562 1026.32 289.562 1024.8C289.562 1023.28 290.042 1021.94 290.862 1020.96C291.622 1020.08 292.882 1019.32 294.642 1019.32C296.422 1019.32 297.642 1020.06 298.402 1020.96C298.902 1021.58 299.202 1022.42 299.242 1023.24H296.782C296.702 1022.18 295.902 1021.48 294.642 1021.48C293.802 1021.48 293.262 1021.84 292.922 1022.22C292.282 1022.9 292.082 1023.82 292.082 1024.8C292.082 1025.78 292.282 1026.74 292.922 1027.4C293.282 1027.78 293.802 1028.12 294.642 1028.12C295.782 1028.12 296.622 1027.52 296.782 1026.36H299.242ZM309.125 1030V1023.7C309.125 1022.5 308.565 1021.66 307.205 1021.66C306.305 1021.66 305.645 1022.22 305.305 1022.98C305.045 1023.58 304.965 1024.34 304.965 1025.04V1030H302.465V1015.34H304.965V1020.66C305.625 1019.76 306.725 1019.34 307.905 1019.34C310.245 1019.34 311.625 1020.98 311.625 1023.14V1030H309.125ZM333.729 1028.92C332.789 1029.76 331.589 1030.28 330.149 1030.28C327.829 1030.28 325.709 1028.82 325.709 1026.24C325.709 1024.5 326.609 1023.32 328.029 1022.38L327.929 1022.26C327.249 1021.48 326.429 1020.42 326.429 1018.98C326.429 1017.1 327.969 1015.54 330.269 1015.54C332.349 1015.54 333.869 1016.96 333.869 1018.82C333.869 1020.56 332.709 1021.78 331.229 1022.74L333.589 1025.42C333.829 1024.6 333.949 1023.66 333.949 1022.68V1022.02H337.309V1024H335.889C335.849 1025.08 335.569 1026.16 335.089 1027.12L337.649 1030H334.669L333.729 1028.92ZM330.349 1028.2C331.209 1028.2 331.909 1027.92 332.429 1027.44L329.369 1023.92C328.369 1024.62 328.009 1025.34 328.009 1026.1C328.009 1027.42 329.009 1028.2 330.349 1028.2ZM328.669 1019C328.669 1019.82 329.249 1020.5 329.829 1021.16L329.869 1021.22C330.869 1020.58 331.709 1019.9 331.709 1018.96C331.709 1018.18 331.129 1017.52 330.249 1017.52C329.369 1017.52 328.669 1018.12 328.669 1019ZM360.094 1027.22V1030H357.594V1027.22H350.974V1024.66L356.394 1016.14H359.194L353.554 1024.96H357.594V1021.32H360.094V1024.96H361.974V1027.22H360.094ZM373.616 1026.04C373.616 1028.82 371.416 1030.28 368.676 1030.28C365.836 1030.28 363.776 1028.48 363.736 1025.88H366.256C366.356 1027.24 367.316 1028.08 368.696 1028.08C370.156 1028.08 371.076 1027.28 371.076 1026C371.076 1024.56 369.976 1023.9 368.516 1023.9H367.356V1021.72H368.516C370.056 1021.72 370.776 1021 370.776 1019.9C370.776 1018.84 369.956 1018.06 368.696 1018.06C367.256 1018.06 366.396 1018.96 366.376 1020.1H363.836C363.876 1017.6 366.016 1015.86 368.696 1015.86C371.336 1015.86 373.316 1017.44 373.316 1019.84C373.316 1021.1 372.536 1022.34 371.216 1022.78C372.736 1023.18 373.616 1024.6 373.616 1026.04ZM383.059 1030C383.059 1032.12 382.319 1033.74 380.099 1034.54L379.439 1033.2C380.859 1032.66 381.379 1031.68 381.379 1030H379.519V1026.48H383.059V1030ZM405.263 1019.06L401.803 1021.48V1018.76L405.623 1016.1H407.763V1027.82H411.063V1030H401.783V1027.82H405.263V1019.06ZM414.786 1030.3H412.866L422.146 1015.54H424.066L414.786 1030.3ZM434.508 1027.22V1030H432.008V1027.22H425.388V1024.66L430.808 1016.14H433.608L427.968 1024.96H432.008V1021.32H434.508V1024.96H436.388V1027.22H434.508ZM461.113 1024.82C461.113 1027.58 459.613 1030.26 456.533 1030.26C455.213 1030.26 454.013 1029.72 453.393 1028.76L453.233 1030H451.073V1015.34H453.573V1020.6C454.033 1019.98 455.013 1019.34 456.513 1019.34C459.593 1019.34 461.113 1021.74 461.113 1024.82ZM456.013 1028.14C457.873 1028.14 458.573 1026.44 458.573 1024.78C458.573 1023.24 457.933 1021.44 456.013 1021.44C454.093 1021.44 453.453 1023.2 453.453 1024.78C453.453 1026.48 454.153 1028.14 456.013 1028.14ZM464.335 1019.6H469.735V1027.94H473.155V1030H463.775V1027.94H467.195V1021.66H464.335V1019.6ZM467.015 1017.98V1015.34H469.895V1017.98H467.015ZM485.397 1029.58C484.937 1029.86 483.897 1030.14 482.557 1030.14C479.897 1030.14 478.777 1028.66 478.777 1026.5V1021.66H475.937V1019.6H478.777V1016.86L481.277 1016.14V1019.6H485.337V1021.66H481.277V1026.2C481.277 1027.42 481.977 1027.88 482.977 1027.88C484.077 1027.88 485.017 1027.58 485.397 1027.44V1029.58ZM497.8 1029.58C497.34 1029.86 496.3 1030.14 494.96 1030.14C492.3 1030.14 491.18 1028.66 491.18 1026.5V1021.66H488.34V1019.6H491.18V1016.86L493.68 1016.14V1019.6H497.74V1021.66H493.68V1026.2C493.68 1027.42 494.38 1027.88 495.38 1027.88C496.48 1027.88 497.42 1027.58 497.8 1027.44V1029.58ZM510.142 1024.52C510.142 1025.14 510.082 1025.44 510.082 1025.52H502.822C502.822 1026.94 503.682 1028.3 505.302 1028.3C506.482 1028.3 507.322 1027.72 507.482 1026.88H509.862C509.782 1027.48 509.362 1028.34 508.962 1028.82C508.062 1029.86 506.702 1030.28 505.342 1030.28C503.862 1030.28 502.762 1029.78 501.922 1029C500.842 1028 500.282 1026.52 500.282 1024.8C500.282 1023.14 500.842 1021.68 501.882 1020.66C502.682 1019.88 503.802 1019.32 505.262 1019.32C506.862 1019.32 508.342 1019.94 509.222 1021.22C509.942 1022.28 510.142 1023.34 510.142 1024.52ZM507.602 1023.7C507.602 1022.44 506.922 1021.3 505.282 1021.3C503.902 1021.3 502.942 1022.3 502.842 1023.7H507.602ZM520.344 1023.54C520.344 1022.44 519.864 1021.48 518.524 1021.48C517.224 1021.48 516.404 1022.5 516.404 1024.24V1030H513.884V1019.6H516.144L516.344 1020.96C516.764 1020.04 517.824 1019.34 519.204 1019.34C521.644 1019.34 522.824 1020.98 522.864 1023.34V1023.54H520.344ZM547.289 1026.36C547.249 1027.18 546.949 1028.02 546.449 1028.64C545.689 1029.54 544.469 1030.28 542.689 1030.28C540.929 1030.28 539.649 1029.52 538.889 1028.64C538.069 1027.66 537.609 1026.32 537.609 1024.8C537.609 1023.28 538.089 1021.94 538.909 1020.96C539.669 1020.08 540.929 1019.32 542.689 1019.32C544.469 1019.32 545.689 1020.06 546.449 1020.96C546.949 1021.58 547.249 1022.42 547.289 1023.24H544.829C544.749 1022.18 543.949 1021.48 542.689 1021.48C541.849 1021.48 541.309 1021.84 540.969 1022.22C540.329 1022.9 540.129 1023.82 540.129 1024.8C540.129 1025.78 540.329 1026.74 540.969 1027.4C541.329 1027.78 541.849 1028.12 542.689 1028.12C543.829 1028.12 544.669 1027.52 544.829 1026.36H547.289ZM557.551 1023.54C557.551 1022.44 557.071 1021.48 555.731 1021.48C554.431 1021.48 553.611 1022.5 553.611 1024.24V1030H551.091V1019.6H553.351L553.551 1020.96C553.971 1020.04 555.031 1019.34 556.411 1019.34C558.851 1019.34 560.031 1020.98 560.071 1023.34V1023.54H557.551ZM572.654 1029.86C572.374 1030 571.854 1030.16 571.254 1030.16C570.034 1030.16 569.394 1029.42 569.314 1028.64C568.814 1029.48 567.694 1030.28 566.194 1030.28C563.654 1030.28 562.354 1028.74 562.354 1027.04C562.354 1025.06 563.774 1023.94 566.074 1023.76L569.074 1023.52V1022.96C569.074 1021.92 568.514 1021.24 567.174 1021.24C565.954 1021.24 565.274 1021.86 565.214 1022.82H562.774C562.934 1020.48 564.854 1019.32 567.214 1019.32C569.034 1019.32 570.594 1019.88 571.214 1021.44C571.474 1022.1 571.514 1022.84 571.514 1023.54V1027.38C571.514 1027.96 571.794 1028.08 572.234 1028.08C572.434 1028.08 572.594 1028.04 572.654 1028.02V1029.86ZM569.074 1025.34L566.454 1025.58C565.454 1025.68 564.794 1026.1 564.794 1026.94C564.794 1027.78 565.414 1028.28 566.454 1028.28C568.054 1028.28 569.074 1027.38 569.074 1025.84V1025.34ZM581.836 1030V1023.7C581.836 1022.5 581.276 1021.66 579.916 1021.66C579.016 1021.66 578.356 1022.22 578.016 1022.98C577.676 1023.76 577.676 1024.78 577.676 1025.64V1030H575.176V1019.6H577.276L577.476 1020.96C578.096 1019.86 579.316 1019.34 580.616 1019.34C582.956 1019.34 584.336 1020.98 584.336 1023.14V1030H581.836Z" fill="white"/>
  <path d="M67.976 1003V999.576H72.808V983.736H67.976V980.312H81.864V983.736H77V999.576H81.864V1003H67.976ZM93.0677 990.936C93.0677 990.2 92.6198 989.432 91.6278 989.432C90.3798 989.432 89.9638 990.648 89.9638 991.704V1003H86.2198V986.36H89.0358L89.4198 988.344C89.7078 987.192 90.8278 986.008 92.6198 986.008C94.8598 986.008 95.6598 987.384 95.8518 988.6C96.2358 987.384 97.3238 986.008 99.6598 986.008C102.156 986.008 103.628 987.832 103.628 990.808V1003H99.8518V990.936C99.8518 990.2 99.4038 989.432 98.4118 989.432C97.1638 989.432 96.7478 990.648 96.7478 991.704V1003H93.0677V990.936ZM123.184 994.648C123.184 999.544 120.88 1003.42 115.952 1003.42C113.552 1003.42 112.368 1002.39 111.568 1001.4V1009.88H107.568V986.36H111.024L111.28 988.344C112.304 986.808 113.936 985.944 115.984 985.944C120.912 985.944 123.184 990.232 123.184 994.648ZM115.152 989.336C112.176 989.336 111.376 992.152 111.376 994.712C111.376 997.08 112.08 1000.06 115.152 1000.06C118.224 1000.06 119.12 997.08 119.12 994.712C119.12 992.152 118.128 989.336 115.152 989.336ZM130.291 994.68C130.291 998.04 131.923 999.96 134.451 999.96C136.979 999.96 138.611 998.04 138.611 994.68C138.611 991.32 136.979 989.4 134.451 989.4C131.923 989.4 130.291 991.32 130.291 994.68ZM126.227 994.68C126.227 989.24 129.779 985.912 134.451 985.912C139.123 985.912 142.675 989.24 142.675 994.68C142.675 1000.12 139.123 1003.45 134.451 1003.45C129.779 1003.45 126.227 1000.12 126.227 994.68ZM161.815 997.88C161.815 1001.78 158.263 1003.45 154.327 1003.45C150.327 1003.45 146.743 1001.5 146.743 997.656H150.583C150.647 999.448 152.375 1000.38 154.455 1000.38C156.695 1000.38 158.103 999.544 158.103 998.264C158.103 997.336 157.591 996.696 156.151 996.472L152.375 995.896C148.759 995.384 147.447 993.272 147.447 991.288C147.447 988.184 150.263 985.912 154.455 985.912C158.487 985.912 161.367 988.12 161.367 991.288H157.559C157.495 989.912 156.407 988.92 154.455 988.92C152.567 988.92 151.223 989.688 151.223 990.936C151.223 992.088 152.183 992.472 153.239 992.632L157.047 993.176C159.895 993.56 161.815 995.256 161.815 997.88ZM182.011 1002.33C181.275 1002.78 179.611 1003.22 177.467 1003.22C173.211 1003.22 171.419 1000.86 171.419 997.4V989.656H166.875V986.36H171.419V981.976L175.419 980.824V986.36H181.915V989.656H175.419V996.92C175.419 998.872 176.539 999.608 178.139 999.608C179.899 999.608 181.403 999.128 182.011 998.904V1002.33ZM201.759 994.232C201.759 995.224 201.663 995.704 201.663 995.832H190.047C190.047 998.104 191.423 1000.28 194.015 1000.28C195.903 1000.28 197.247 999.352 197.503 998.008H201.311C201.183 998.968 200.51 1000.34 199.871 1001.11C198.431 1002.78 196.255 1003.45 194.079 1003.45C191.711 1003.45 189.951 1002.65 188.607 1001.4C186.879 999.8 185.983 997.432 185.983 994.68C185.983 992.024 186.879 989.688 188.543 988.056C189.823 986.808 191.615 985.912 193.951 985.912C196.511 985.912 198.879 986.904 200.287 988.952C201.439 990.648 201.759 992.344 201.759 994.232ZM197.695 992.92C197.695 990.904 196.607 989.08 193.983 989.08C191.775 989.08 190.239 990.68 190.079 992.92H197.695ZM218.082 992.664C218.082 990.904 217.314 989.368 215.17 989.368C213.09 989.368 211.778 991 211.778 993.784V1003H207.746V986.36H211.362L211.682 988.536C212.354 987.064 214.05 985.944 216.258 985.944C220.162 985.944 222.05 988.568 222.114 992.344V992.664H218.082Z" fill="white"/>
  <path d="M579.625 101.812C591 101.812 599.062 102.458 603.812 103.75C606.979 104.625 609.396 105.708 611.062 107C613.021 108.667 614 110.542 614 112.625C614 117.583 608.375 121.083 597.125 123.125C603.583 123.833 608.875 125.271 613 127.438C617.583 129.812 619.875 132.604 619.875 135.812C619.875 138.438 618.417 140.833 615.5 143C610.042 147.125 599.146 149.188 582.812 149.188H553.25L552.562 148.812L559.188 146.062L559.875 145.75V105.25L559.188 104.875L552.562 102.125L553.25 101.812H579.625ZM571.938 145.625C571.938 145.833 572.167 145.938 572.625 145.938H581.312C597.812 145.938 606.062 142.771 606.062 136.438C606.062 128.938 596.938 125.188 578.688 125.188H572.625C572.167 125.188 571.938 125.292 571.938 125.5V145.625ZM571.938 122.125C571.938 122.375 572.167 122.5 572.625 122.5H576.812C584.396 122.5 590.062 121.917 593.812 120.75C598.896 119.208 601.438 116.771 601.438 113.438C601.438 110.646 599.604 108.562 595.938 107.188C592.604 105.896 588.333 105.208 583.125 105.125L577.875 105H572.625C572.167 105 571.938 105.125 571.938 105.375V122.125ZM681.312 146.438L680.688 146.125L685.812 143.75L686.312 143.688C686.354 143.646 686.354 143.542 686.312 143.375L677.312 131.625C677.104 131.5 676.938 131.438 676.812 131.438H650.5C650.292 131.438 650.125 131.5 650 131.625L640.438 143.5L641 143.875L648.75 146.125L646.625 146.438H627.438L626.875 146.125L633.875 143.75L634.312 143.562L665.125 105.188C665.25 105.062 665.417 105 665.625 105H668.625C668.833 105 669 105.062 669.125 105.188L697.438 143.562L697.938 143.688L704.062 146.125L703.438 146.438H681.312ZM664.625 114.125C664.417 114 664.25 113.938 664.125 113.938C663.875 113.938 663.729 114 663.688 114.125L652.25 128.5C652 128.75 652.188 128.875 652.812 128.875H674.625C675.25 128.875 675.479 128.75 675.312 128.5L664.625 114.125ZM736 106.062C746.958 106.062 754.833 106.896 759.625 108.562C765.25 110.562 768.062 113.229 768.062 116.562C768.062 120.521 764.229 123.479 756.562 125.438C754.188 126.062 751.646 126.562 748.938 126.938C753.104 127.979 757.021 130.208 760.688 133.625L771.062 143.562L771.938 143.75L781.375 146.125L780.812 146.438H761.812C761.396 146.438 761.104 146.354 760.938 146.188L750.5 135.375C745.458 130.167 739 127.562 731.125 127.562H729.688C729.312 127.562 729.125 127.646 729.125 127.812V143.5L729.688 143.75L737.375 146.125L736.688 146.438H711.375L710.75 146.125L717.75 143.75L718.312 143.5V109L717.75 108.688L710.75 106.312L711.375 106.062H736ZM729.125 124.812C729.125 125.021 729.292 125.125 729.625 125.125C735.208 125.125 739.125 125.062 741.375 124.938C747.083 124.771 751.271 123.667 753.938 121.625C755.438 120.5 756.188 119.104 756.188 117.438C756.188 111.688 748.771 108.812 733.938 108.812H729.688C729.312 108.812 729.125 108.917 729.125 109.125V124.812ZM472.562 229.812L473.062 230L502.5 267.062L532 230L532.562 229.812H555.812L556.5 230.125L548.312 232.875L547.562 233.25V273.75L548.312 274.062L557.125 276.812L556.5 277.188H527.625L526.938 276.812L534.938 274.062L535.562 273.75V234.625H535.062L501 277.688L500.312 277.812H498.875L498.188 277.688L464.125 235.125H463.625V273.75L464.25 274.062L472.188 276.812L471.5 277.188H448.75L448.062 276.812L456.438 274.062L457.125 273.75V233.25L456.438 232.875L448.625 230.125L449.312 229.812H472.562ZM619.125 234.062L619.75 234.312V243.75L619.125 244.062L611.625 237.062L611.062 236.812H583.375L582.75 237.125V251.938L583.375 252.188H600L605.75 249.875L606.312 250.062V257.562L605.75 257.75L600 254.875H583.375L582.75 255.188V271.375L583.375 271.688H612.688L613.312 271.438L620.875 264.5L621.438 264.812V274.125C621.438 274.333 621.25 274.438 620.875 274.438H564.25L563.688 274.125L571.562 271.75L572.125 271.5V236.875L571.562 236.688L563.688 234.312L564.25 234.062H619.125ZM625.375 234.312L625.938 234.062H642.938L643.375 234.188L688.312 263.625V237.188L687.812 236.938L681.25 234.312L681.875 234.062H701L701.625 234.312L694.938 236.938L694.375 237.188V274.562L693.625 274.875H691.312L690.75 274.688L638.562 240.438V271.25L639.062 271.562L645.5 274.125L644.875 274.438H627.062L626.438 274.125L631.875 271.562L632.5 271.25V237.188L631.875 236.938L625.375 234.312ZM713.375 237L712.812 236.688L707.438 234.312L708.062 234.062H730.375L730.938 234.312L724.562 236.688L723.938 237V258.625C723.938 261.708 724.271 264.021 724.938 265.562C725.396 266.812 726.438 267.875 728.062 268.75C732.312 271.167 738.396 272.375 746.312 272.375C754.854 272.375 761.229 270.688 765.438 267.312C766.771 266.354 767.667 264.708 768.125 262.375C768.375 261.208 768.5 259.75 768.5 258V237L767.875 236.688L762.375 234.312L763 234.062H780.625L781.188 234.312L775.75 236.688L775.188 237V257.75C775.188 264.292 772.458 268.875 767 271.5C761.75 274 754.292 275.25 744.625 275.25C733.75 275.25 725.604 273.917 720.188 271.25C717.771 270 716.104 268.75 715.188 267.5C713.979 265.75 713.375 263.521 713.375 260.812V237Z" fill="white"/>
  <path d="M631.754 392V385.664L649.802 366.592C652.042 364.288 652.682 361.856 652.682 360.064C652.682 356.032 650.122 353.792 646.474 353.792C641.994 353.792 639.754 356.736 639.754 360.96C639.754 361.152 639.754 361.536 639.818 361.984H631.562C631.498 361.472 631.498 361.024 631.498 360.896C631.498 353.088 636.682 346.752 646.538 346.752C654.41 346.752 660.81 351.744 660.81 360.192C660.81 364.48 658.89 368 655.37 371.648L642.698 384.768H661.834V392H631.754ZM685.778 392.832C671.634 392.832 669.522 380.736 669.522 369.856C669.522 358.976 671.698 346.752 685.778 346.752C699.858 346.752 702.034 358.976 702.034 369.856C702.034 380.736 699.922 392.832 685.778 392.832ZM693.842 371.328C693.842 365.952 693.714 365.44 693.714 364.864L679.25 381.568C680.402 383.872 682.385 385.472 685.778 385.472C693.458 385.472 693.842 377.088 693.842 371.328ZM685.778 354.176C679.634 354.176 677.714 360.192 677.714 369.28C677.714 372.224 677.714 373.376 677.778 374.464L692.114 357.824C690.962 355.648 688.978 354.176 685.778 354.176ZM711.129 392V385.664L729.177 366.592C731.417 364.288 732.057 361.856 732.057 360.064C732.057 356.032 729.497 353.792 725.849 353.792C721.369 353.792 719.129 356.736 719.129 360.96C719.129 361.152 719.129 361.536 719.193 361.984H710.937C710.873 361.472 710.873 361.024 710.873 360.896C710.873 353.088 716.057 346.752 725.913 346.752C733.785 346.752 740.185 351.744 740.185 360.192C740.185 364.48 738.265 368 734.745 371.648L722.073 384.768H741.209V392H711.129ZM776.801 383.104V392H768.801V383.104H747.617V374.912L764.961 347.648H773.921L755.873 375.872H768.801V364.224H776.801V375.872H782.817V383.104H776.801Z" fill="white"/>
</svg>
